<?xml version="1.0" standalone="no"?>
<!DOCTYPE svg PUBLIC "-//W3C//DTD SVG 20010904//EN"
 "http://www.w3.org/TR/2001/REC-SVG-20010904/DTD/svg10.dtd">
<svg version="1.0" xmlns="http://www.w3.org/2000/svg"
 width="6165.000000pt" height="1675.000000pt" viewBox="0 0 6165.000000 1675.000000"
 preserveAspectRatio="xMidYMid meet">
<metadata>
Created by potrace 1.16, written by Peter Selinger 2001-2019
</metadata>
<g transform="translate(0.000000,1675.000000) scale(0.100000,-0.100000)"
fill="#000000" stroke="none">
<path d="M22420 16246 c-370 -79 -605 -348 -636 -728 -31 -388 209 -726 585
-824 170 -44 408 -37 575 16 125 40 207 91 301 185 166 167 234 351 222 605
-7 136 -32 242 -82 341 -97 194 -260 327 -475 390 -97 27 -387 36 -490 15z"/>
<path d="M33600 12690 l0 -2960 725 0 725 0 0 1238 c0 1047 2 1252 15 1337 63
420 307 655 680 655 120 0 213 -21 314 -71 207 -102 332 -317 360 -620 7 -73
11 -546 11 -1326 l0 -1213 715 0 715 0 0 1368 c0 831 -4 1420 -10 1502 -41
540 -201 952 -485 1249 -157 164 -317 266 -526 335 -246 81 -563 97 -833 41
-391 -81 -706 -315 -935 -695 l-21 -35 0 1078 0 1077 -725 0 -725 0 0 -2960z"/>
<path d="M1120 15320 l0 -200 2478 2 2477 3 3 198 2 197 -2480 0 -2480 0 0
-200z"/>
<path d="M6570 15320 l0 -200 2470 0 2470 0 0 200 0 200 -2470 0 -2470 0 0
-200z"/>
<path d="M15589 15466 c-358 -41 -665 -145 -906 -306 -293 -196 -509 -470
-612 -777 -118 -353 -118 -834 0 -1188 107 -319 371 -641 673 -820 192 -113
457 -233 826 -373 674 -256 834 -372 872 -630 22 -150 -32 -313 -127 -383 -87
-64 -224 -92 -351 -70 -237 42 -388 226 -429 524 l-6 47 -765 0 -764 0 0 -42
c0 -24 7 -88 15 -143 61 -429 209 -754 464 -1018 374 -387 885 -591 1536 -614
581 -20 1049 121 1415 424 289 240 467 563 542 983 22 124 16 507 -10 651 -64
350 -205 607 -475 866 -201 191 -499 352 -1101 593 -647 258 -805 369 -847
595 -13 71 -6 171 18 246 13 40 32 69 74 111 48 48 67 60 129 79 129 39 291
13 393 -65 86 -65 154 -200 181 -359 l12 -72 776 -3 776 -2 -4 37 c-24 233
-51 372 -101 528 -214 664 -738 1068 -1528 1175 -129 18 -543 21 -676 6z"/>
<path d="M25480 12560 l0 -2830 1670 0 1670 0 0 630 0 630 -945 0 -945 0 0
505 0 505 835 0 835 0 0 600 0 600 -835 0 -835 0 0 465 0 465 945 0 945 0 0
630 0 630 -1670 0 -1670 0 0 -2830z"/>
<path d="M5184 14820 c-28 -11 -35 -23 -36 -60 -2 -63 77 -95 122 -50 53 53
-15 140 -86 110z"/>
<path d="M2890 14786 c0 -32 3 -35 33 -38 32 -3 32 -3 35 -63 l3 -60 -70 3
c-156 8 -242 -87 -243 -268 -1 -151 71 -241 192 -240 34 0 109 36 116 55 9 24
24 18 24 -10 0 -24 2 -25 75 -25 l75 0 0 35 c0 27 -4 35 -18 35 -40 0 -42 13
-42 317 l0 293 -90 0 -90 0 0 -34z m54 -242 c14 -5 16 -27 16 -144 0 -154 -10
-181 -70 -194 -78 -15 -130 48 -130 157 0 119 45 187 123 187 25 0 52 -3 61
-6z"/>
<path d="M4530 14787 c0 -27 5 -35 30 -44 l30 -11 0 -245 c0 -135 -3 -252 -6
-261 -3 -9 -17 -16 -30 -16 -21 0 -24 -5 -24 -35 l0 -35 115 0 115 0 0 35 c0
32 -2 35 -30 35 l-30 0 0 130 c0 142 8 173 51 196 41 21 77 17 105 -11 24 -24
25 -27 22 -167 l-3 -142 -25 -6 c-19 -4 -26 -13 -28 -38 l-3 -32 115 0 116 0
0 34 c0 30 -3 35 -27 38 l-28 3 -5 167 c-4 149 -7 170 -26 195 -29 39 -60 53
-122 53 -56 0 -83 -9 -119 -43 l-23 -20 0 126 0 127 -85 0 -85 0 0 -33z"/>
<path d="M9010 14785 c0 -23 5 -35 13 -35 8 0 21 -8 30 -18 15 -16 17 -49 17
-258 0 -249 -2 -264 -42 -264 -14 0 -18 -8 -18 -35 l0 -35 110 0 110 0 0 35
c0 31 -3 35 -25 35 l-25 0 0 305 0 305 -85 0 -85 0 0 -35z"/>
<path d="M9300 14788 c0 -26 6 -37 30 -50 l30 -17 0 -236 c0 -244 -5 -275 -40
-275 -16 0 -20 -7 -20 -35 l0 -35 110 0 110 0 0 35 c0 31 -3 35 -25 35 l-25 0
0 305 0 305 -85 0 -85 0 0 -32z"/>
<path d="M6357 14776 c-21 -8 -48 -22 -59 -33 -46 -40 -61 -123 -33 -188 14
-34 13 -36 -16 -58 -76 -55 -108 -175 -71 -259 26 -60 75 -96 151 -110 77 -15
168 1 223 37 l38 25 54 -40 c29 -22 57 -40 63 -40 8 0 36 33 56 66 4 6 -19 30
-54 54 -43 32 -58 48 -53 59 13 30 34 116 34 138 0 18 6 23 25 23 23 0 25 4
25 40 l0 40 -100 0 -100 0 0 -35 c0 -29 5 -37 26 -45 25 -10 26 -14 20 -52 -4
-23 -9 -44 -11 -46 -16 -17 -176 154 -201 215 -32 75 -5 133 62 133 56 0 74
-15 74 -61 l0 -40 48 3 47 3 3 71 3 71 -43 18 c-59 23 -164 29 -211 11z m125
-537 c-52 -42 -152 -33 -191 18 -34 43 -27 116 17 165 14 17 21 11 106 -73
l91 -91 -23 -19z"/>
<path d="M1100 14741 c0 -36 3 -40 28 -43 l27 -3 3 -229 c2 -237 0 -256 -39
-256 -15 0 -19 -7 -19 -35 l0 -35 225 0 225 0 0 89 c0 97 -3 101 -61 101 -27
0 -29 -3 -29 -38 0 -55 -12 -62 -107 -62 l-83 0 0 223 c0 231 3 247 42 247 14
0 18 8 18 40 l0 40 -115 0 -115 0 0 -39z"/>
<path d="M7040 14740 c0 -36 3 -40 25 -40 l25 0 0 -240 0 -240 -30 -6 c-26 -6
-30 -11 -30 -40 l0 -34 230 0 231 0 -3 83 -3 82 -47 3 -47 3 -3 -38 -3 -38
-87 -3 -88 -3 0 96 0 95 110 0 110 0 0 45 0 45 -110 0 -110 0 0 85 0 86 83 -3
82 -3 3 -33 c3 -29 6 -33 25 -28 12 3 34 6 50 6 l27 0 0 80 0 80 -220 0 -220
0 0 -40z"/>
<path d="M1750 14608 c-111 -56 -159 -229 -103 -369 43 -109 189 -148 325 -87
l47 21 -19 38 -19 37 -38 -19 c-70 -36 -150 -21 -183 33 -32 53 -27 68 23 68
109 0 225 69 229 136 4 87 -14 127 -67 150 -53 22 -143 18 -195 -8z m148 -71
c13 -10 16 -45 6 -72 -10 -25 -78 -55 -125 -55 l-42 0 6 37 c14 85 98 134 155
90z"/>
<path d="M2245 14618 c-47 -17 -93 -56 -115 -97 -44 -87 -45 -241 -2 -314 53
-91 194 -112 266 -41 l26 27 0 -27 c0 -26 1 -26 75 -26 l75 0 0 34 c0 28 -4
35 -22 38 -23 3 -23 5 -28 198 l-5 195 -45 12 c-56 14 -185 15 -225 1z m163
-215 c2 -135 1 -142 -20 -167 -14 -16 -38 -29 -60 -33 -73 -11 -118 47 -118
154 0 78 16 131 51 165 26 26 34 29 86 26 l58 -3 3 -142z"/>
<path d="M3319 14607 c-110 -58 -158 -229 -102 -368 43 -109 197 -150 330 -87
l42 20 -17 36 c-9 21 -17 38 -17 39 -1 2 -19 -6 -40 -17 -72 -37 -151 -23
-185 32 -32 53 -27 68 23 68 64 0 142 27 182 61 69 61 67 169 -4 216 -48 32
-150 32 -212 0z m149 -70 c6 -5 12 -24 12 -43 0 -45 -44 -76 -118 -82 l-55 -5
6 39 c14 85 98 135 155 91z"/>
<path d="M3885 14619 c-11 -6 -32 -25 -47 -42 l-28 -31 0 37 0 37 -81 0 -80 0
3 -37 c3 -33 7 -39 33 -43 l30 -5 3 -140 c3 -168 0 -185 -33 -185 -22 0 -25
-4 -25 -35 l0 -35 125 0 125 0 0 35 c0 34 -1 35 -41 35 l-41 0 4 141 c3 140 3
141 31 165 46 39 97 27 97 -23 0 -20 5 -23 40 -23 l40 0 0 74 c0 68 -2 74 -22
80 -36 9 -111 6 -133 -5z"/>
<path d="M4187 14609 c-49 -26 -77 -72 -77 -127 0 -83 30 -114 144 -147 66
-19 96 -44 96 -79 0 -47 -70 -71 -134 -46 -21 8 -26 16 -26 45 0 32 -2 35 -29
35 -56 0 -61 -7 -61 -75 l0 -63 38 -13 c20 -7 75 -13 122 -13 71 -1 92 3 126
23 54 30 74 67 74 131 0 46 -4 56 -33 85 -23 23 -56 40 -105 55 -48 15 -79 30
-92 47 -26 33 -25 39 6 70 21 21 32 25 66 20 41 -5 67 -29 68 -59 0 -14 9 -18
40 -18 l40 0 0 59 0 59 -47 16 c-66 23 -168 20 -216 -5z"/>
<path d="M5610 14610 c-19 -12 -41 -29 -47 -38 -11 -14 -13 -11 -13 16 l0 32
-80 0 -80 0 0 -39 c0 -36 3 -40 28 -43 l27 -3 0 -260 0 -259 -25 -6 c-21 -5
-25 -12 -25 -40 l0 -35 123 -3 122 -3 0 41 0 40 -40 0 -40 0 0 69 0 70 37 -16
c52 -21 134 -12 183 21 25 16 48 44 66 81 23 49 27 70 28 149 1 106 -17 166
-65 211 -26 25 -39 30 -97 33 -55 2 -73 -1 -102 -18z m99 -80 c27 -14 51 -82
51 -143 0 -111 -41 -177 -111 -177 -21 0 -50 5 -64 12 -25 11 -25 12 -25 135
0 124 0 125 29 154 31 31 83 39 120 19z"/>
<path d="M8230 14623 c-44 -17 -100 -67 -119 -106 -43 -89 -37 -232 14 -309
48 -72 156 -104 256 -75 30 9 62 22 73 30 17 13 17 15 2 45 -18 35 -29 38 -66
17 -33 -19 -110 -19 -136 0 -37 25 -56 81 -56 160 0 70 9 102 40 137 18 21 72
33 107 24 21 -5 25 -12 25 -41 0 -35 0 -35 45 -35 l45 0 0 64 0 64 -47 16
c-45 15 -152 20 -183 9z"/>
<path d="M8670 14608 c-141 -72 -173 -333 -55 -437 63 -55 187 -63 282 -19
l42 20 -17 36 c-9 21 -17 38 -17 39 -1 2 -19 -6 -40 -17 -72 -37 -151 -23
-185 32 -32 53 -27 68 23 68 154 0 261 101 225 213 -19 60 -54 81 -141 85 -60
3 -80 -1 -117 -20z m148 -71 c19 -15 14 -65 -8 -87 -28 -28 -63 -40 -112 -40
l-41 0 6 37 c14 85 98 134 155 90z"/>
<path d="M9724 14611 c-149 -68 -182 -337 -55 -444 60 -50 175 -57 269 -17 46
21 49 27 27 71 l-16 29 -39 -20 c-23 -11 -59 -20 -86 -20 -39 0 -51 5 -80 34
-20 20 -34 44 -34 59 0 23 4 25 67 30 126 12 203 74 203 164 0 58 -21 97 -64
117 -46 22 -140 20 -192 -3z m144 -73 c13 -11 16 -56 4 -74 -18 -28 -79 -54
-125 -54 -47 0 -47 0 -41 28 24 99 102 147 162 100z"/>
<path d="M10290 14619 c-14 -6 -37 -22 -52 -36 l-28 -27 0 32 0 32 -81 0 -80
0 3 -37 c3 -33 7 -38 31 -41 l27 -3 -2 -162 -3 -161 -25 -6 c-19 -4 -26 -13
-28 -38 l-3 -32 115 0 116 0 0 35 c0 31 -3 35 -25 35 l-25 0 0 139 c0 131 1
142 23 166 31 36 93 44 127 17 24 -19 25 -26 28 -147 4 -154 0 -175 -33 -175
-22 0 -25 -4 -25 -35 l0 -35 115 0 115 0 0 35 c0 32 -2 35 -30 35 l-30 0 0
155 c0 177 -9 213 -62 245 -36 22 -123 27 -168 9z"/>
<path d="M10780 14619 c-45 -18 -90 -60 -113 -102 -19 -35 -22 -58 -22 -142 0
-112 17 -160 74 -208 62 -52 180 -59 268 -16 l43 21 -20 38 -19 38 -38 -19
c-20 -10 -57 -19 -81 -19 -74 0 -122 69 -122 175 0 99 48 165 119 165 44 0 61
-14 61 -52 0 -27 2 -28 45 -28 l46 0 -3 62 c-3 59 -5 64 -33 78 -36 17 -170
24 -205 9z"/>
<path d="M11235 14611 c-110 -50 -163 -203 -120 -347 28 -94 97 -139 215 -138
60 0 160 31 160 49 0 3 -6 21 -14 40 l-15 35 -43 -20 c-24 -11 -63 -20 -86
-20 -37 0 -50 6 -78 34 -20 20 -34 44 -34 59 0 23 4 25 67 30 126 12 203 74
203 164 0 55 -24 98 -66 118 -44 21 -140 19 -189 -4z m143 -79 c42 -53 -30
-122 -129 -122 -43 0 -44 2 -28 51 28 84 115 123 157 71z"/>
<path d="M5110 14581 c0 -36 3 -40 28 -43 l27 -3 0 -160 0 -160 -27 -3 c-25
-3 -28 -8 -28 -38 l0 -34 115 0 115 0 0 34 c0 30 -3 35 -27 38 l-28 3 -3 203
-2 202 -85 0 -85 0 0 -39z"/>
<path d="M7560 14586 c0 -27 5 -35 23 -40 21 -5 137 -150 137 -170 0 -4 -27
-41 -61 -82 -43 -53 -70 -77 -90 -81 -25 -5 -29 -10 -29 -39 l0 -34 100 0 100
0 0 34 c0 27 -4 35 -21 38 -19 3 -18 6 17 51 20 26 40 47 44 47 10 0 60 -73
60 -88 0 -7 -9 -12 -20 -12 -16 0 -20 -7 -20 -35 l0 -35 115 0 115 0 0 35 c0
30 -3 35 -24 35 -18 0 -39 20 -89 87 l-65 87 52 68 c31 42 65 75 88 85 32 15
38 23 38 51 l0 32 -100 0 -100 0 0 -36 c0 -27 5 -37 20 -41 20 -5 20 -5 0 -32
-54 -72 -48 -70 -81 -31 -34 40 -36 56 -9 65 15 5 20 15 20 41 l0 34 -110 0
-110 0 0 -34z"/>
<path d="M30705 14258 c-309 -35 -596 -135 -797 -278 -154 -110 -323 -302
-401 -457 -112 -221 -160 -482 -138 -757 17 -222 63 -391 142 -521 47 -79 174
-230 246 -291 243 -211 492 -308 1248 -484 77 -18 196 -50 265 -72 296 -94
370 -159 378 -331 5 -96 -13 -149 -69 -207 -61 -63 -114 -82 -244 -87 -193 -8
-343 41 -463 152 -71 66 -122 159 -143 263 l-13 62 -693 0 c-684 0 -693 0
-693 -20 0 -41 53 -267 86 -369 86 -262 215 -473 403 -661 284 -283 628 -440
1111 -506 157 -22 578 -25 720 -6 415 57 746 207 980 441 183 184 290 390 335
648 19 105 21 361 5 484 -23 174 -82 343 -162 466 -102 157 -311 344 -486 436
-162 84 -481 191 -799 268 -284 68 -561 157 -688 222 -122 61 -165 126 -165
244 1 113 55 200 152 244 74 33 259 34 363 2 189 -59 313 -190 372 -390 l18
-63 678 0 c641 0 678 1 673 18 -2 9 -12 55 -21 102 -37 189 -144 461 -245 625
-149 243 -360 454 -590 589 -206 122 -470 205 -752 235 -115 13 -499 12 -613
-1z"/>
<path d="M46350 14250 c-261 -46 -502 -160 -714 -339 -286 -240 -536 -674
-642 -1116 -60 -250 -84 -487 -84 -820 0 -543 75 -918 259 -1300 183 -380 402
-627 719 -809 236 -136 536 -206 824 -193 486 23 883 258 1092 648 l46 84 0
-337 0 -338 720 0 720 0 0 2245 0 2245 -720 0 -720 0 0 -337 0 -338 -40 73
c-165 303 -423 512 -742 601 -191 54 -511 67 -718 31z m907 -1375 c47 -9 112
-31 163 -56 120 -59 246 -186 312 -314 85 -168 118 -315 118 -529 0 -469 -203
-799 -552 -896 -99 -28 -263 -28 -369 -1 -297 76 -499 337 -549 708 -16 116
-8 369 15 473 99 447 444 694 862 615z"/>
<path d="M21270 14249 c-343 -44 -645 -203 -922 -485 -105 -108 -157 -169
-236 -283 l-52 -74 0 406 0 407 -725 0 -725 0 0 -2245 0 -2245 725 0 725 0 0
1048 c0 1137 0 1145 56 1311 92 276 316 429 687 470 53 6 216 11 362 11 l265
0 0 845 0 845 -47 -1 c-27 -1 -77 -5 -113 -10z"/>
<path d="M52732 14249 c-325 -38 -626 -194 -903 -469 -120 -119 -210 -228
-278 -335 l-31 -49 0 412 0 412 -725 0 -725 0 0 -2245 0 -2245 725 0 725 0 0
1023 c0 684 4 1052 11 1112 44 360 193 551 507 649 134 42 280 56 588 56 l274
0 0 845 0 845 -47 -1 c-27 -1 -81 -5 -121 -10z"/>
<path d="M21900 11975 l0 -2245 725 0 725 0 0 2245 0 2245 -725 0 -725 0 0
-2245z"/>
<path d="M38242 14193 c2 -16 227 -1026 499 -2245 l494 -2218 812 0 811 0 21
88 c11 48 151 663 311 1367 160 704 292 1285 294 1290 5 16 10 -3 322 -1407
l298 -1338 807 0 807 0 10 43 c26 105 1002 4425 1002 4435 0 9 -166 12 -667
12 l-668 0 -209 -1398 c-115 -768 -216 -1442 -224 -1497 l-15 -99 -327 1471
c-180 809 -330 1483 -334 1497 l-6 26 -767 -2 -767 -3 -315 -1472 c-174 -809
-319 -1469 -322 -1465 -3 4 -101 655 -218 1447 -118 792 -216 1452 -218 1468
l-5 27 -715 0 -715 0 4 -27z"/>
<path d="M57660 14014 c-30 -2 -107 -11 -170 -20 -63 -9 -126 -18 -140 -19
-14 -1 -45 -8 -70 -15 -25 -6 -52 -14 -60 -16 -8 -2 -42 -13 -75 -25 -33 -12
-68 -21 -77 -21 -10 1 -18 -4 -18 -9 0 -6 -4 -8 -9 -4 -5 3 -12 1 -16 -5 -4
-6 -11 -8 -16 -5 -5 4 -9 1 -9 -4 0 -6 -8 -11 -18 -11 -10 0 -22 -3 -26 -7 -4
-5 -11 -8 -14 -8 -4 -1 -22 -9 -39 -18 -18 -10 -33 -15 -33 -12 0 2 -19 -7
-42 -20 -24 -14 -59 -33 -78 -43 -19 -9 -38 -21 -42 -27 -4 -5 -8 -6 -8 -2 0
5 -7 2 -15 -5 -34 -30 -43 -36 -49 -31 -3 3 -8 -2 -12 -11 -3 -9 -10 -13 -15
-10 -5 3 -12 -2 -15 -10 -3 -9 -10 -14 -14 -11 -5 3 -13 -3 -19 -12 -6 -10
-11 -14 -11 -9 0 4 -14 -6 -32 -23 -17 -17 -37 -31 -43 -31 -6 0 -25 -16 -41
-35 -16 -19 -33 -35 -37 -35 -5 0 -52 -45 -105 -100 -132 -135 -152 -157 -152
-168 0 -6 -7 -12 -15 -16 -8 -3 -15 -12 -15 -21 0 -8 -4 -15 -10 -15 -5 0 -16
-16 -25 -35 -9 -19 -27 -45 -38 -58 -12 -13 -35 -49 -52 -80 -16 -31 -34 -57
-38 -57 -5 0 -5 -4 -2 -10 3 -5 3 -10 -2 -10 -6 0 -54 -90 -58 -110 -1 -3 -9
-23 -19 -45 -30 -68 -97 -268 -102 -305 -2 -19 -9 -53 -15 -75 -6 -22 -13 -52
-15 -68 -2 -15 -8 -64 -14 -110 -11 -78 -15 -353 -6 -427 11 -92 31 -202 45
-247 5 -17 7 -34 4 -37 -3 -2 -1 -11 3 -18 5 -7 9 -19 11 -27 2 -18 61 -195
81 -246 9 -22 27 -60 41 -85 14 -24 26 -50 27 -56 1 -6 18 -36 38 -65 20 -30
36 -59 36 -65 0 -12 89 -135 147 -203 21 -24 38 -47 38 -50 1 -9 192 -197 239
-235 21 -17 51 -43 66 -58 15 -16 32 -28 39 -28 6 0 11 -4 11 -10 0 -5 6 -10
13 -10 7 0 24 -10 37 -22 14 -13 28 -22 32 -21 5 2 8 -2 8 -7 0 -6 5 -10 11
-10 13 0 128 -68 147 -87 7 -7 16 -13 20 -14 23 -2 43 -10 87 -33 l50 -26 -55
7 c-110 15 -478 8 -600 -11 -63 -10 -122 -19 -130 -20 -8 -1 -25 -8 -38 -15
-21 -11 -23 -17 -18 -77 6 -73 10 -70 -79 -49 -68 17 -200 19 -260 5 -54 -12
-96 -21 -120 -24 -11 -2 -20 -4 -20 -6 0 -5 -62 -7 -83 -2 -24 5 -26 17 -11
72 3 11 -4 14 -26 13 -49 -4 -55 -6 -55 -15 0 -5 -4 -6 -10 -3 -14 9 -24 -43
-11 -59 6 -7 8 -16 4 -19 -3 -4 1 -7 10 -7 10 0 17 -5 17 -12 0 -6 3 -9 6 -5
4 3 21 -1 38 -10 33 -18 36 -18 223 -26 127 -6 243 -24 243 -38 0 -4 10 -9 22
-11 42 -6 32 -28 -14 -30 -155 -5 -181 -9 -232 -31 -21 -9 -42 -17 -47 -17 -5
0 -9 -5 -9 -10 0 -6 -11 -15 -25 -20 -14 -5 -25 -14 -25 -19 0 -16 -60 -21
-98 -8 -51 17 -68 15 -64 -7 5 -27 23 -42 63 -51 56 -13 147 -4 232 22 29 9
185 9 217 0 14 -5 36 -10 49 -13 13 -3 34 -10 45 -16 12 -6 23 -11 26 -10 3 1
48 -12 100 -28 103 -32 164 -42 250 -40 66 1 81 3 98 13 6 5 12 5 12 1 0 -4
18 11 40 34 39 39 51 74 30 87 -5 3 -10 11 -10 17 0 11 37 9 365 -28 399 -44
482 -49 830 -49 348 0 496 7 825 40 80 8 183 17 230 20 47 3 95 8 108 11 20 4
22 2 13 -15 -6 -11 -8 -28 -5 -38 6 -16 76 -89 82 -85 1 1 3 2 5 1 37 -11 242
-11 242 1 0 1 9 3 20 5 31 5 54 12 131 39 39 14 80 27 90 29 10 2 32 9 49 16
70 29 199 26 310 -7 11 -3 62 -6 113 -6 88 -1 94 0 112 24 39 50 21 58 -64 30
-40 -13 -72 -3 -126 40 -21 17 -40 30 -43 30 -3 0 -18 5 -34 12 -38 16 -62 18
-180 21 -95 2 -101 3 -86 19 15 17 78 41 140 53 17 3 89 9 160 11 166 7 171 7
217 23 50 17 86 49 86 75 0 24 -13 48 -26 48 -5 0 -19 4 -32 9 -52 20 -72 4
-46 -36 24 -36 6 -52 -53 -50 -27 1 -48 4 -48 5 0 1 -9 4 -20 6 -24 3 -66 12
-120 24 -22 5 -76 10 -120 10 -44 0 -98 -5 -120 -10 -101 -23 -95 -25 -95 35
0 60 -14 101 -38 110 -9 3 -90 11 -181 17 -151 9 -404 6 -646 -8 l-90 -5 40
20 c22 11 46 20 53 21 6 0 12 5 12 11 0 5 5 7 10 4 6 -3 10 -1 10 4 0 6 9 11
20 11 11 0 20 4 20 8 0 8 54 38 73 40 4 1 17 11 29 22 13 12 33 23 45 26 13 4
23 10 23 15 0 5 7 9 15 9 8 0 15 5 15 10 0 6 7 10 15 10 8 0 15 5 15 10 0 6 7
10 15 10 8 0 15 5 15 10 0 6 5 10 11 10 7 0 24 12 39 28 42 41 77 72 83 72 2
0 54 50 115 110 61 61 109 110 107 110 -5 0 11 20 58 74 42 48 47 55 47 61 0
4 6 12 13 20 18 19 52 67 52 74 0 10 48 85 59 93 6 4 7 8 3 8 -5 0 1 14 13 30
12 17 23 36 24 43 1 7 8 23 16 37 8 14 15 27 15 30 0 3 11 26 23 51 13 26 24
55 26 65 2 11 20 66 40 122 20 57 34 108 31 112 -3 5 -1 11 4 14 4 3 9 16 9
28 0 13 5 48 11 78 23 116 31 205 30 362 0 181 -2 206 -23 322 -9 45 -18 97
-21 116 -3 19 -20 80 -37 135 -17 55 -33 109 -35 120 -2 11 -24 63 -50 115
-83 170 -93 189 -110 208 -7 7 -13 19 -13 25 0 11 -34 62 -97 145 -10 13 -29
36 -43 50 -14 14 -24 28 -22 29 4 5 -17 29 -123 136 -55 56 -103 102 -107 102
-4 0 -19 14 -35 31 -15 17 -36 34 -45 37 -10 4 -18 11 -18 17 0 5 -6 10 -13
10 -7 0 -24 11 -39 25 -15 14 -32 25 -38 25 -5 0 -10 5 -10 10 0 6 -7 10 -15
10 -8 0 -15 5 -15 10 0 6 -6 10 -13 10 -7 0 -20 9 -30 20 -9 11 -24 20 -32 20
-8 0 -15 5 -15 11 0 5 -4 8 -9 4 -5 -3 -16 2 -24 10 -9 8 -18 15 -22 15 -3 0
-17 8 -32 17 -14 10 -33 18 -41 19 -8 2 -19 9 -23 16 -5 7 -9 9 -9 4 0 -4 -11
-1 -25 8 -14 9 -25 14 -25 11 0 -3 -19 5 -42 17 -24 12 -46 23 -50 24 -5 1
-11 3 -15 4 -5 1 -11 2 -15 1 -5 0 -8 4 -8 9 0 6 -6 10 -12 9 -7 -2 -58 11
-113 29 -55 17 -111 34 -125 36 -14 2 -25 5 -25 7 0 1 -11 3 -25 4 -14 1 -41
5 -60 8 -150 25 -362 39 -480 31z m409 -80 c791 -108 1464 -705 1654 -1469 46
-183 52 -240 52 -475 0 -235 -6 -292 -52 -475 -135 -543 -517 -1015 -1028
-1272 -172 -87 -445 -184 -415 -148 6 8 9 23 5 34 -4 14 0 23 17 32 41 21 88
72 88 96 0 27 -8 29 -38 7 -12 -8 -50 -22 -83 -31 -59 -15 -61 -15 -75 6 -28
40 -29 39 -207 -132 -48 -46 -66 -57 -93 -57 -22 0 -34 5 -34 14 0 8 25 53 55
101 49 79 69 135 47 135 -4 0 -18 -7 -30 -16 -26 -18 -24 -19 -46 23 l-16 32
58 6 c657 72 1187 467 1422 1061 133 333 142 747 25 1094 -201 596 -710 1019
-1350 1121 -103 17 -397 17 -500 0 -674 -107 -1219 -589 -1380 -1220 -195
-760 170 -1542 879 -1886 207 -100 424 -158 640 -172 93 -5 106 -8 100 -22 -3
-9 -11 -28 -16 -43 -14 -39 -35 -35 -53 9 -13 30 -18 35 -25 23 -14 -22 -12
-39 11 -87 13 -27 37 -54 59 -68 33 -21 60 -65 60 -96 0 -15 -98 -10 -107 5
-15 25 -211 196 -226 196 -8 0 -21 -9 -28 -20 -13 -20 -17 -20 -69 -9 -30 7
-67 21 -82 31 -29 20 -48 17 -48 -7 0 -19 65 -84 95 -95 18 -7 22 -14 18 -31
-4 -15 0 -27 13 -37 17 -13 12 -13 -51 -7 -121 11 -275 64 -460 157 -553 277
-950 806 -1061 1413 -23 126 -27 517 -6 635 91 509 343 930 742 1242 322 251
688 386 1140 422 75 6 289 -5 399 -20z m-783 -515 c17 -17 53 -45 80 -63 34
-22 49 -38 48 -53 0 -20 0 -20 65 4 89 34 122 38 159 19 42 -22 47 -34 26 -57
-10 -11 -19 -30 -19 -42 -3 -39 -33 -93 -59 -105 -29 -13 -33 -33 -10 -52 31
-26 37 -50 19 -77 -15 -22 -22 -24 -56 -19 -24 4 -39 2 -39 -4 0 -5 7 -10 15
-10 11 0 15 -11 15 -42 0 -41 2 -44 45 -62 25 -10 67 -38 93 -61 l47 -43 -47
-49 c-43 -44 -46 -50 -34 -72 10 -17 36 -31 101 -52 48 -16 92 -32 99 -37 17
-14 69 -21 91 -12 14 5 26 2 40 -11 41 -40 97 -69 130 -69 19 0 51 -8 71 -17
33 -16 36 -16 45 -1 9 16 12 16 45 1 44 -22 54 -10 54 65 0 33 4 52 12 52 6 0
21 9 33 20 22 20 22 20 46 1 19 -15 22 -23 13 -42 -5 -13 -8 -35 -6 -48 3 -22
7 -23 50 -16 26 4 53 12 60 18 9 7 16 7 24 -1 7 -7 36 -12 65 -12 46 0 53 3
53 20 0 13 -7 20 -20 20 -15 0 -20 7 -20 28 0 22 7 30 39 43 23 10 44 28 52
45 8 16 27 35 42 42 15 7 27 18 27 24 0 5 9 23 21 39 21 30 56 38 77 17 9 -9
19 -5 45 21 30 28 37 31 58 21 13 -7 35 -26 48 -42 24 -29 24 -32 9 -59 l-17
-28 45 6 44 6 0 -71 c0 -69 -1 -72 -27 -78 -17 -5 -28 -3 -31 4 -6 19 -23 14
-73 -20 l-47 -32 5 -52 c5 -46 3 -53 -16 -63 -17 -9 -21 -21 -21 -56 0 -32 -4
-45 -14 -45 -8 0 -19 -13 -25 -30 -8 -26 -15 -30 -45 -30 -40 0 -48 -20 -22
-55 7 -10 11 -27 8 -37 -7 -28 -58 -60 -89 -56 -23 2 -29 8 -31 35 -3 30 -5
32 -34 26 -23 -5 -34 -2 -45 12 -19 27 -16 62 6 77 10 7 20 22 22 33 3 12 14
21 27 23 13 2 21 9 19 15 -2 8 -39 13 -105 15 l-102 3 0 29 c0 24 -5 30 -22
31 -13 1 -42 3 -65 4 -49 4 -57 -13 -20 -38 l22 -15 -22 -30 c-28 -38 -29 -48
-3 -62 13 -7 20 -21 20 -39 0 -16 7 -34 15 -41 11 -9 15 -32 15 -81 0 -59 -3
-69 -17 -69 -10 0 -29 -16 -42 -35 -13 -20 -39 -49 -57 -65 -24 -21 -34 -38
-34 -58 0 -34 -39 -78 -87 -99 -21 -8 -33 -20 -33 -32 0 -22 -65 -84 -132
-126 -26 -16 -49 -39 -52 -50 -3 -11 -30 -35 -61 -54 -49 -29 -56 -36 -51 -57
6 -21 1 -26 -32 -39 -20 -9 -42 -25 -47 -37 -13 -28 -46 -48 -52 -30 -7 18
-31 15 -69 -9 l-33 -20 3 -127 c4 -120 3 -129 -20 -169 -20 -35 -22 -46 -12
-62 9 -15 8 -24 -5 -45 -12 -17 -17 -46 -17 -91 l0 -65 -30 0 c-22 0 -33 -7
-44 -29 -14 -27 -14 -29 4 -34 30 -8 24 -22 -15 -36 -20 -7 -46 -26 -58 -43
-35 -47 -64 -58 -116 -43 -81 25 -115 73 -126 179 -4 41 -16 86 -31 114 -13
25 -24 50 -24 56 0 6 -18 35 -40 65 -32 43 -40 61 -40 97 0 52 -29 130 -75
204 -70 110 -75 126 -75 245 -1 76 -5 118 -15 135 -19 33 -19 64 0 80 12 10
13 16 4 26 -9 11 -9 25 0 57 15 54 11 189 -6 195 -9 2 -13 -11 -13 -46 0 -46
-3 -53 -39 -81 -46 -36 -87 -54 -111 -46 -17 5 -84 75 -144 150 -35 44 -29 70
14 60 22 -5 45 1 90 24 64 31 67 52 4 26 -20 -8 -49 -15 -65 -15 -31 0 -79 19
-79 31 0 4 -16 17 -36 28 -36 21 -45 56 -14 56 8 0 20 5 25 11 18 20 74 25
100 8 21 -14 26 -14 54 0 16 9 33 21 36 27 5 6 12 3 22 -10 8 -12 23 -21 33
-21 26 0 37 44 19 68 -27 33 -37 58 -43 112 -11 79 -15 90 -42 100 -30 12 -32
43 -4 68 11 9 32 29 47 45 32 32 46 34 74 6 15 -15 24 -18 33 -9 8 6 28 9 46
8 23 -2 35 2 44 16 61 105 119 186 132 186 8 0 30 12 49 27 32 25 33 29 28 78
l-5 51 42 19 c37 17 40 20 21 27 -12 4 -21 12 -21 18 0 6 -11 15 -25 20 -14 5
-25 14 -25 20 0 5 -6 10 -14 10 -8 0 -24 8 -36 18 -18 15 -20 21 -11 45 7 18
7 36 0 53 -11 30 10 74 36 74 19 0 19 24 1 39 -8 6 -33 15 -57 19 -52 9 -65
36 -25 52 18 6 28 20 32 40 5 23 12 30 30 30 18 0 24 6 24 21 0 21 3 22 78 15
67 -6 81 -11 108 -37z m1583 -2126 c16 -16 32 -43 36 -60 7 -33 6 -33 -34 -33
-33 0 -40 3 -43 23 -2 14 -11 23 -25 25 -22 3 -23 1 -23 -92 0 -55 4 -98 10
-101 16 -10 40 15 40 41 0 21 4 24 41 24 l41 0 -7 -37 c-9 -52 -22 -72 -51
-83 -49 -19 -94 -12 -125 19 -28 29 -29 32 -29 133 0 79 4 109 16 126 34 49
109 56 153 15z m-756 -65 l25 -83 -5 83 -6 82 37 0 36 0 0 -155 0 -155 -39 0
-40 0 -25 78 -25 77 6 -77 5 -78 -41 0 -41 0 0 155 0 155 44 0 43 0 26 -82z
m301 -50 c39 -184 39 -184 60 -86 10 45 24 114 33 151 l15 68 46 -3 46 -3 28
-130 c15 -71 30 -140 33 -152 5 -21 2 -23 -34 -23 -35 0 -39 3 -44 30 -5 23
-12 30 -30 30 -19 0 -26 -7 -30 -30 l-6 -30 -80 0 c-79 0 -80 0 -83 28 -2 21
-8 27 -28 27 -20 0 -26 -6 -28 -27 -3 -25 -7 -28 -43 -28 -21 0 -39 3 -39 7 0
4 14 74 32 155 l32 148 46 0 47 0 27 -132z m-1584 -1098 c74 -6 232 -21 350
-35 118 -13 279 -29 357 -36 178 -15 588 -6 737 15 248 36 468 49 806 50 184
0 348 -3 363 -7 l29 -8 -5 -127 c-2 -70 -10 -144 -16 -165 l-12 -38 -57 8
c-115 16 -449 5 -792 -26 -693 -63 -858 -63 -1505 6 -267 28 -384 36 -545 37
-207 1 -210 1 -302 -39 -14 -5 -20 3 -32 47 -18 64 -46 270 -37 280 7 7 197
36 276 41 113 8 258 6 385 -3z"/>
<path d="M56428 13374 c-15 -15 -15 -20 3 -62 11 -25 18 -46 16 -49 -2 -2 -25
5 -50 14 -46 17 -47 17 -69 -5 -17 -16 -19 -22 -7 -22 20 0 111 -94 102 -105
-5 -5 0 -3 10 5 18 13 18 14 0 21 -19 7 -92 79 -80 79 4 0 35 -11 69 -25 34
-14 63 -24 64 -22 1 1 -11 33 -27 70 l-29 68 43 -36 c23 -20 44 -43 47 -51 4
-12 11 -9 30 13 14 15 21 25 16 20 -6 -4 -35 17 -66 48 -51 51 -57 54 -72 39z"/>
<path d="M59530 12433 c-55 -20 -69 -95 -25 -138 53 -54 135 -18 135 59 0 61
-53 100 -110 79z"/>
<path d="M59471 11524 c-36 -46 -20 -106 34 -124 59 -20 105 14 105 78 0 67
-97 99 -139 46z"/>
<path d="M1123 9723 c3 -4254 -1 -3915 57 -4308 71 -473 221 -967 432 -1418
358 -768 917 -1456 1598 -1968 617 -464 1332 -785 2092 -938 208 -43 485 -80
645 -88 l136 -6 -6 33 c-4 18 -7 108 -7 200 l0 167 -137 6 c-485 21 -1157 203
-1675 452 l-78 37 0 515 c0 411 3 513 13 506 22 -18 1876 -1183 1882 -1183 3
0 5 119 5 264 l0 264 -950 598 -950 598 0 333 c0 183 2 333 4 333 3 0 427
-265 942 -590 516 -324 941 -590 946 -590 4 0 8 118 8 263 l0 262 -948 596
-947 596 -3 311 -2 311 937 -591 c516 -325 944 -592 951 -595 9 -4 12 52 12
260 l0 265 -1037 652 c-571 359 -1045 655 -1055 658 -9 2 -546 -150 -1193
-338 -647 -189 -1178 -340 -1181 -337 -9 9 -51 262 -68 411 -31 269 -37 592
-34 2031 l3 1420 2283 3 2282 2 0 195 0 195 -2282 2 -2283 3 0 1855 0 1855
2283 3 2282 2 0 195 0 195 -2480 0 -2480 0 3 -3897z m2595 -6753 l-3 -811
-110 75 c-60 42 -164 118 -230 169 l-120 94 0 1378 0 1378 230 67 230 67 3
-803 c1 -441 1 -1167 0 -1614z m-918 1058 l0 -1091 -21 19 c-30 26 -201 232
-277 331 l-62 82 0 823 0 824 173 51 c94 28 175 51 180 52 4 1 7 -490 7 -1091z
m-810 487 c0 -201 -4 -365 -8 -365 -25 0 -268 637 -250 655 6 7 228 74 246 74
9 1 12 -78 12 -364z"/>
<path d="M6570 7289 l0 -6291 78 6 c295 26 597 75 872 142 l185 45 37 72 c177
344 490 614 841 724 l87 28 -5 40 c-3 22 -111 1458 -241 3190 l-236 3150 -184
185 c-101 102 -184 189 -184 193 0 4 549 7 1220 7 671 0 1220 -3 1220 -7 0 -4
-83 -91 -184 -193 l-185 -185 -239 -3185 c-132 -1752 -239 -3186 -238 -3187 1
-1 50 35 110 81 714 555 1279 1306 1614 2146 184 463 288 891 349 1431 16 143
17 436 20 4027 l3 3872 -2470 0 -2470 0 0 -6291z m2427 5342 c78 -209 188
-401 405 -708 388 -549 577 -936 643 -1317 19 -113 19 -328 0 -437 -27 -158
-96 -327 -193 -474 -65 -99 -229 -259 -341 -334 -81 -53 -220 -131 -235 -131
-3 0 4 26 15 58 11 31 35 116 54 187 125 485 85 927 -123 1342 -107 212 -231
381 -461 630 l-131 141 0 84 c0 324 104 790 260 1163 l34 80 18 -94 c11 -52
35 -137 55 -190z m-862 -431 c47 -203 183 -471 324 -640 25 -30 102 -114 172
-186 431 -450 612 -795 650 -1240 22 -259 -32 -597 -140 -870 l-19 -49 -7 50
c-74 546 -223 883 -525 1186 -139 140 -211 196 -421 330 -79 50 -172 114 -206
141 l-62 50 -8 77 c-23 210 -5 509 43 721 41 178 160 529 174 513 4 -4 15 -42
25 -83z m2079 -400 c50 -195 114 -349 210 -513 128 -217 214 -437 252 -642 26
-136 26 -421 1 -550 -27 -139 -93 -332 -144 -423 -162 -286 -437 -449 -818
-484 -71 -6 -143 -8 -158 -4 -28 7 -26 8 58 68 297 211 499 539 560 907 25
147 16 411 -18 567 -34 151 -85 301 -164 478 l-66 149 22 111 c31 157 93 337
170 490 l66 131 6 -110 c4 -60 14 -139 23 -175z m-2729 -515 c85 -144 173
-261 283 -377 118 -123 148 -146 353 -278 82 -52 184 -123 228 -158 114 -90
276 -263 345 -366 149 -225 249 -513 288 -824 10 -89 10 -105 -2 -113 -9 -6
-78 -8 -175 -5 -127 3 -181 9 -261 30 -486 122 -819 487 -999 1095 -81 272
-130 608 -160 1081 l-5 95 26 -45 c14 -25 50 -85 79 -135z"/>
<path d="M2170 11631 l0 -1069 148 -41 c81 -22 426 -119 767 -215 l620 -174
762 214 c419 118 764 214 767 214 4 0 6 482 6 1070 0 697 -3 1070 -10 1070 -5
0 -349 -85 -763 -190 -414 -104 -757 -190 -763 -190 -6 0 -349 86 -763 190
-414 105 -756 190 -761 190 -6 0 -10 -398 -10 -1069z m845 455 c231 -58 437
-111 458 -116 l37 -11 0 -679 c0 -424 -4 -680 -10 -680 -7 0 -817 225 -922
256 -17 5 -18 46 -18 675 0 634 1 670 18 665 9 -3 206 -52 437 -110z m1835
-556 l0 -669 -42 -12 c-24 -6 -233 -65 -466 -130 -233 -65 -428 -119 -433
-119 -6 0 -8 260 -7 682 l3 682 465 117 c256 64 468 118 473 118 4 1 7 -300 7
-669z"/>
<path d="M60351 9242 c-63 -32 -76 -74 -76 -252 0 -171 8 -199 68 -244 39 -29
147 -30 195 -1 41 25 72 88 72 148 l0 47 -54 0 -53 0 -5 -50 c-6 -57 -21 -80
-54 -80 -46 0 -59 40 -59 185 1 142 9 171 51 181 34 9 54 -12 61 -65 l6 -41
55 0 55 0 -6 56 c-7 67 -27 101 -72 120 -48 20 -142 18 -184 -4z"/>
<path d="M55102 9013 c-34 -131 -65 -248 -68 -260 -6 -22 -4 -23 53 -23 l60 0
12 55 12 55 60 0 c39 0 61 -4 64 -12 2 -7 9 -32 15 -55 l11 -43 58 0 59 0 -65
260 -65 260 -72 0 -72 0 -62 -237z"/>
<path d="M56860 9173 l0 -76 -21 19 c-31 28 -100 26 -133 -5 -35 -33 -46 -78
-46 -186 0 -113 22 -168 74 -190 44 -19 64 -19 99 -1 15 8 27 11 27 5 0 -5 25
-9 55 -9 l55 0 0 260 0 260 -55 0 -55 0 0 -77z m-13 -153 c18 -36 17 -160 -3
-188 -38 -55 -74 -8 -74 98 0 53 5 82 16 98 20 28 44 25 61 -8z"/>
<path d="M57910 9173 l0 -76 -21 19 c-31 28 -100 26 -133 -5 -35 -33 -46 -78
-46 -186 0 -113 22 -168 74 -190 44 -19 64 -19 99 -1 15 8 27 11 27 5 0 -5 25
-9 55 -9 l55 0 0 260 0 260 -55 0 -55 0 0 -77z m-13 -153 c18 -36 17 -160 -3
-188 -38 -55 -74 -8 -74 98 0 53 5 82 16 98 20 28 44 25 61 -8z"/>
<path d="M58250 8990 l0 -260 50 0 c40 0 50 3 50 17 0 14 2 14 21 -3 31 -28
100 -26 133 5 38 35 51 85 50 191 -1 120 -17 164 -70 186 -42 18 -88 13 -116
-13 -17 -15 -18 -13 -18 60 l0 77 -50 0 -50 0 0 -260z m182 38 c16 -30 16
-166 -1 -196 -20 -36 -53 -25 -69 23 -15 44 -11 139 7 174 15 28 47 27 63 -1z"/>
<path d="M59100 8990 l0 -260 50 0 50 0 1 173 1 172 57 -170 58 -170 66 -3 67
-3 0 261 0 260 -55 0 -55 0 -1 -167 -1 -168 -56 168 -57 167 -62 0 -63 0 0
-260z"/>
<path d="M59591 9213 c-5 -21 -35 -134 -65 -250 -31 -117 -56 -217 -56 -223 0
-6 26 -10 60 -10 50 0 60 3 60 18 0 9 5 34 11 55 l10 37 59 0 59 0 11 -42 c6
-24 13 -49 15 -55 3 -9 34 -13 109 -13 l105 0 12 55 12 55 62 0 62 0 12 -55
12 -55 60 0 c53 0 60 2 55 18 -3 9 -28 109 -56 222 -28 113 -55 222 -61 243
l-10 37 -72 0 -72 0 -60 -230 c-33 -126 -62 -224 -66 -217 -3 6 -30 110 -60
230 l-54 217 -72 0 -72 0 -10 -37z"/>
<path d="M57200 9185 c0 -52 -1 -55 -25 -55 -22 0 -25 -4 -25 -40 0 -36 3 -40
25 -40 l25 0 0 -140 c0 -173 4 -180 105 -180 l65 0 0 39 c0 36 -3 40 -27 43
l-28 3 -3 118 -3 117 31 0 c28 0 30 2 30 40 0 38 -2 40 -30 40 -30 0 -30 1
-30 55 l0 55 -55 0 -55 0 0 -55z"/>
<path d="M55533 9130 c-72 -23 -99 -94 -91 -240 5 -84 20 -117 65 -147 37 -24
138 -24 175 0 28 19 58 82 58 122 0 23 -4 25 -48 25 -47 0 -49 -1 -58 -37 -13
-51 -39 -65 -65 -34 -16 19 -19 39 -19 111 0 72 3 92 19 111 25 30 51 18 63
-29 8 -31 11 -32 58 -32 47 0 50 2 50 25 0 39 -25 92 -53 110 -30 20 -112 28
-154 15z"/>
<path d="M55843 9121 c-63 -29 -78 -64 -78 -191 0 -150 28 -194 131 -206 93
-11 164 44 164 129 l0 37 -50 0 c-46 0 -50 -2 -50 -24 0 -13 -9 -34 -19 -47
-25 -31 -51 -17 -64 32 -12 45 -3 174 13 194 25 30 70 5 70 -41 0 -22 4 -24
51 -24 l52 0 -6 45 c-10 98 -111 142 -214 96z"/>
<path d="M56231 9114 c-30 -25 -31 -25 -31 -5 0 19 -6 21 -50 21 l-50 0 0
-200 0 -200 55 0 55 0 0 134 c0 151 6 166 66 166 l34 0 0 55 c0 52 -2 55 -24
55 -14 0 -38 -12 -55 -26z"/>
<path d="M56415 9125 c-22 -8 -41 -15 -42 -15 -2 0 -13 -19 -25 -42 -18 -35
-22 -60 -22 -133 0 -151 33 -202 137 -211 84 -8 147 36 161 114 l6 32 -55 0
c-51 0 -55 -2 -55 -23 0 -27 -17 -47 -41 -47 -24 0 -36 19 -44 68 l-7 42 103
0 102 0 -6 68 c-6 79 -21 116 -54 137 -35 23 -111 28 -158 10z"/>
<path d="M57476 9130 c-72 -23 -101 -83 -99 -211 1 -138 35 -186 136 -195 84
-8 146 36 162 114 l7 32 -56 0 c-52 0 -56 -2 -56 -23 0 -27 -17 -47 -41 -47
-23 0 -35 19 -43 68 l-6 42 101 0 102 0 -5 68 c-5 73 -27 125 -58 142 -29 15
-110 21 -144 10z"/>
<path d="M57020 8930 l0 -200 55 0 55 0 0 200 0 200 -55 0 -55 0 0 -200z"/>
<path d="M58575 9099 c4 -17 28 -106 55 -197 52 -183 52 -205 1 -210 -29 -3
-31 -6 -31 -43 l0 -39 56 0 c62 0 88 10 105 42 10 19 129 452 129 471 0 4 -24
7 -54 7 l-55 0 -10 -52 c-6 -29 -16 -87 -24 -127 l-13 -75 -23 115 c-13 62
-26 120 -29 127 -2 7 -24 12 -59 12 l-55 0 7 -31z"/>
<path d="M3709 8426 c-178 -363 -238 -476 -254 -479 -11 -3 -248 -38 -527 -78
-280 -40 -508 -76 -508 -79 0 -3 171 -172 380 -375 209 -203 380 -370 380
-372 0 -1 -40 -238 -90 -525 -49 -287 -88 -523 -86 -525 2 -2 213 107 469 242
256 135 471 245 477 245 6 0 221 -110 477 -245 256 -135 467 -244 469 -242 2
1 -37 237 -86 522 -50 286 -90 523 -90 526 0 3 171 172 380 375 209 203 380
371 380 374 0 4 -228 39 -507 79 -280 40 -517 75 -529 78 -16 3 -73 111 -254
479 -128 261 -236 474 -240 474 -4 0 -112 -214 -241 -474z m347 -618 c58 -117
107 -214 108 -215 2 -2 99 -17 217 -33 118 -17 225 -33 239 -36 22 -5 10 -20
-149 -172 l-174 -167 40 -235 c23 -129 39 -237 37 -239 -1 -2 -98 47 -213 108
l-211 111 -211 -111 c-115 -61 -212 -110 -214 -108 -2 2 15 110 37 239 l41
235 -174 166 c-160 154 -172 168 -149 173 14 3 108 17 210 31 102 14 199 28
216 31 30 5 37 17 135 219 57 118 105 214 106 215 2 0 51 -96 109 -212z"/>
<path d="M37931 8825 c-144 -41 -220 -140 -221 -288 0 -94 14 -131 75 -196 71
-76 126 -96 265 -96 106 0 120 2 172 28 115 56 176 164 165 293 -12 160 -130
260 -314 270 -61 3 -105 -1 -142 -11z"/>
<path d="M46673 8830 c-138 -29 -231 -133 -241 -270 -9 -126 52 -231 166 -287
52 -26 66 -28 172 -28 142 0 195 20 268 100 56 61 72 106 72 201 0 122 -76
229 -188 269 -55 20 -190 28 -249 15z"/>
<path d="M30313 8749 c-103 -13 -183 -37 -273 -81 -209 -102 -340 -324 -340
-578 l0 -70 -115 0 -115 0 0 -240 0 -240 115 0 115 0 0 -685 0 -685 285 0 285
0 0 685 0 685 165 0 165 0 0 240 0 240 -166 0 -166 0 7 43 c21 135 102 197
258 197 l67 0 0 250 0 250 -112 -1 c-62 -1 -141 -5 -175 -10z"/>
<path d="M18600 7395 l0 -1225 290 0 290 0 0 1225 0 1225 -290 0 -290 0 0
-1225z"/>
<path d="M19560 7395 l0 -1225 285 0 285 0 0 1225 0 1225 -285 0 -285 0 0
-1225z"/>
<path d="M14896 8529 c-157 -17 -311 -67 -451 -148 -114 -66 -282 -235 -352
-355 -122 -207 -173 -411 -173 -689 0 -286 69 -529 211 -738 59 -88 180 -207
267 -264 222 -143 415 -192 720 -182 189 6 292 26 428 81 238 97 451 301 554
531 31 68 80 223 80 251 0 12 -51 14 -302 14 l-303 0 -33 -64 c-37 -72 -128
-167 -199 -209 -155 -89 -373 -98 -533 -20 -76 37 -186 150 -228 235 -58 118
-75 203 -75 373 0 173 18 260 78 373 100 190 254 282 469 282 174 0 280 -42
391 -154 39 -39 84 -97 100 -128 l30 -58 303 0 c261 0 302 2 302 15 0 34 -65
216 -106 295 -83 161 -199 290 -350 389 -215 141 -517 203 -828 170z"/>
<path d="M31500 7340 l0 -1170 735 0 735 0 0 230 0 230 -445 0 -445 0 0 255 0
255 395 0 395 0 0 220 0 220 -395 0 -395 0 0 235 0 235 445 0 445 0 0 230 0
230 -735 0 -735 0 0 -1170z"/>
<path d="M58283 8424 c-18 -9 -42 -31 -52 -48 -46 -74 -53 -299 -12 -391 26
-59 61 -80 132 -80 42 0 62 5 78 19 19 17 21 17 21 3 0 -13 10 -17 45 -17 l45
0 0 140 0 140 -90 0 -90 0 0 -40 c0 -39 1 -40 35 -40 34 0 35 -1 35 -40 0 -30
-7 -47 -25 -65 -29 -30 -36 -31 -66 -6 -23 19 -24 24 -24 169 0 133 2 152 19
171 34 38 76 19 90 -41 6 -26 10 -28 62 -28 l56 0 -7 38 c-16 89 -70 132 -165
132 -30 0 -70 -8 -87 -16z"/>
<path d="M56740 8170 l0 -260 55 0 55 0 0 138 c0 147 10 182 50 182 33 0 40
-33 40 -179 l0 -141 56 0 56 0 -4 173 c-3 191 -9 211 -65 226 -35 10 -95 0
-118 -19 -13 -11 -15 -2 -15 64 l0 76 -55 0 -55 0 0 -260z"/>
<path d="M57323 8406 c-26 -23 -28 -29 -31 -120 l-4 -96 51 0 51 0 0 60 c0 52
-2 60 -19 60 -15 0 -18 5 -13 23 3 12 11 26 19 30 7 4 13 21 13 37 0 38 -27
40 -67 6z"/>
<path d="M57550 8426 c0 -3 -29 -117 -65 -253 -36 -136 -65 -251 -65 -255 0
-5 26 -8 59 -8 l59 0 6 38 c13 73 12 72 76 72 l59 0 11 -42 c6 -24 13 -49 15
-55 5 -14 115 -19 115 -5 0 4 -28 121 -62 260 l-63 252 -72 0 c-40 0 -73 -2
-73 -4z"/>
<path d="M57850 8370 c0 -53 2 -60 20 -60 11 0 20 -7 20 -15 0 -8 -9 -23 -20
-32 -11 -10 -20 -30 -20 -46 0 -27 2 -29 28 -22 57 14 81 66 82 183 l0 52 -55
0 -55 0 0 -60z"/>
<path d="M59350 8361 l0 -69 -40 14 c-59 20 -109 2 -135 -51 -28 -56 -29 -232
-1 -288 20 -41 60 -67 101 -67 28 0 66 16 77 34 5 7 8 4 8 -6 0 -15 9 -18 50
-18 l50 0 0 260 0 260 -55 0 -55 0 0 -69z m-13 -158 c21 -32 24 -155 5 -190
-15 -26 -44 -30 -62 -8 -21 25 -25 144 -7 188 19 44 40 47 64 10z"/>
<path d="M56560 8365 c0 -52 -1 -55 -25 -55 -22 0 -25 -4 -25 -40 0 -36 3 -40
25 -40 l25 0 0 -138 c0 -176 3 -182 101 -182 l69 0 0 39 c0 36 -3 40 -27 43
l-28 3 -3 118 -3 117 31 0 c30 0 31 2 28 38 -3 32 -7 37 -30 40 -27 3 -28 6
-28 58 l0 54 -55 0 -55 0 0 -55z"/>
<path d="M58755 8312 c-11 -2 -30 -13 -42 -25 l-23 -20 0 21 c0 20 -5 22 -50
22 l-50 0 0 -200 0 -200 50 0 50 0 0 114 c0 156 12 186 78 186 32 0 32 0 32
49 0 51 -8 61 -45 53z"/>
<path d="M58930 8313 c-68 -10 -110 -54 -110 -112 0 -18 6 -21 49 -21 43 0 50
3 55 24 7 27 34 40 60 30 12 -5 16 -16 14 -37 -3 -28 -8 -32 -63 -49 -82 -24
-102 -36 -116 -69 -17 -42 -6 -126 18 -151 32 -31 107 -36 143 -10 23 18 29
19 34 7 4 -11 21 -15 61 -15 48 0 55 2 55 20 0 11 -4 20 -10 20 -6 0 -10 49
-10 128 0 142 -11 196 -43 216 -24 15 -97 25 -137 19z"/>
<path d="M59620 8310 c-93 -17 -115 -56 -115 -200 0 -149 31 -198 132 -207 88
-9 163 46 163 120 0 26 -2 27 -48 27 -45 0 -48 -2 -57 -32 -8 -26 -16 -34 -37
-36 -22 -3 -30 2 -38 23 -5 14 -10 40 -10 56 l0 29 99 0 99 0 -5 63 c-10 110
-38 149 -113 159 -19 3 -51 2 -70 -2z"/>
<path d="M55850 8295 c0 -8 18 -96 40 -195 22 -99 40 -182 40 -185 0 -3 28 -5
63 -3 l62 3 19 113 c11 61 22 112 26 112 4 0 15 -51 26 -112 l19 -113 63 -3
c34 -2 62 -1 62 2 0 3 18 87 40 187 22 100 40 188 40 196 0 9 -15 13 -49 13
-58 0 -53 10 -77 -150 l-18 -115 -17 100 c-10 55 -21 115 -24 133 l-6 33 -57
-3 -57 -3 -21 -118 c-12 -65 -23 -120 -26 -122 -3 -3 -13 51 -23 120 l-18 125
-53 0 c-41 0 -54 -4 -54 -15z"/>
<path d="M56380 8110 l0 -200 55 0 55 0 0 200 0 200 -55 0 -55 0 0 -200z"/>
<path d="M17175 8033 c-134 -19 -309 -89 -419 -167 -291 -207 -423 -610 -335
-1020 58 -272 229 -488 481 -605 270 -127 625 -129 903 -6 194 85 374 277 449
476 44 118 60 221 60 384 0 169 -17 273 -65 393 -86 216 -271 401 -483 483
-133 51 -239 69 -411 67 -82 0 -163 -3 -180 -5z m301 -510 c100 -29 196 -128
230 -236 39 -125 26 -345 -27 -448 -28 -56 -97 -122 -161 -155 -76 -39 -207
-46 -291 -14 -117 44 -211 163 -237 300 -35 186 10 370 116 470 105 100 224
126 370 83z"/>
<path d="M21170 8034 c-84 -16 -193 -50 -256 -79 -318 -147 -494 -453 -494
-860 0 -252 59 -442 191 -618 248 -330 786 -433 1194 -230 206 103 366 293
425 505 11 40 20 74 20 75 0 2 -137 3 -304 3 l-304 0 -26 -54 c-29 -60 -73
-103 -139 -138 -36 -20 -57 -23 -152 -23 -95 0 -116 3 -152 23 -99 53 -152
127 -179 251 -7 36 -14 74 -14 84 0 16 37 17 640 17 l639 0 8 38 c13 61 6 252
-12 337 -69 324 -274 543 -601 641 -80 24 -107 27 -274 30 -102 1 -196 0 -210
-2z m342 -481 c108 -48 178 -155 178 -274 l0 -49 -354 0 -353 0 9 53 c21 116
88 215 179 263 97 51 238 54 341 7z"/>
<path d="M23062 8020 c-274 -72 -473 -288 -559 -606 -25 -92 -27 -113 -27
-314 -1 -191 2 -225 22 -303 84 -333 278 -547 569 -629 101 -28 286 -30 383
-5 152 40 284 132 363 252 l39 60 -4 -215 c-5 -239 -15 -285 -82 -373 -89
-117 -329 -160 -492 -87 -61 27 -128 93 -153 150 l-22 50 -279 0 -280 0 0 -22
c0 -49 35 -159 80 -254 137 -284 416 -441 816 -461 497 -24 826 190 951 617
l27 95 4 1023 3 1022 -286 0 -285 0 0 -151 0 -151 -41 61 c-80 120 -213 211
-359 245 -94 23 -295 20 -388 -4z m540 -510 c116 -43 213 -166 238 -299 43
-232 -42 -436 -219 -524 -61 -30 -72 -32 -171 -32 -94 0 -111 3 -165 28 -115
54 -193 154 -221 286 -68 325 116 583 406 567 43 -2 99 -13 132 -26z"/>
<path d="M25460 8034 c-323 -61 -534 -217 -660 -487 -58 -124 -81 -226 -87
-398 -11 -288 50 -500 199 -686 296 -372 944 -430 1334 -119 129 102 232 256
273 406 12 41 21 76 21 77 0 2 -137 3 -304 3 l-304 0 -26 -54 c-29 -60 -73
-103 -139 -138 -36 -20 -57 -23 -152 -23 -103 0 -113 2 -164 30 -102 57 -156
145 -176 293 l-7 52 640 0 640 0 6 28 c22 114 12 280 -25 413 -77 280 -286
485 -586 575 -79 24 -107 27 -273 30 -102 1 -196 0 -210 -2z m339 -480 c109
-49 170 -138 179 -256 l5 -68 -355 0 -355 0 5 33 c19 157 120 276 266 314 74
19 186 9 255 -23z"/>
<path d="M28140 8021 c-362 -81 -596 -302 -691 -651 -21 -76 -24 -106 -23
-280 0 -168 3 -206 22 -275 31 -111 111 -267 181 -351 250 -300 735 -405 1153
-248 256 96 451 316 526 593 23 87 26 114 26 281 0 158 -3 198 -22 273 -81
323 -315 561 -637 647 -118 32 -414 38 -535 11z m377 -503 c103 -38 193 -150
224 -278 15 -67 15 -227 0 -294 -28 -118 -104 -216 -209 -268 -40 -20 -62 -23
-152 -23 -91 0 -112 3 -155 25 -76 37 -157 123 -184 195 -72 193 -42 426 70
550 104 113 257 148 406 93z"/>
<path d="M34285 8024 c-153 -34 -309 -136 -391 -259 l-34 -50 0 153 0 152
-290 0 -290 0 0 -925 0 -925 290 0 289 0 3 563 3 562 28 60 c33 72 95 138 157
169 61 31 90 37 180 37 186 0 310 -110 340 -301 6 -38 10 -279 10 -577 l0
-513 285 0 286 0 -4 633 c-3 616 -4 634 -25 717 -47 177 -149 330 -279 416
-31 21 -96 51 -143 67 -74 26 -102 31 -215 33 -91 3 -151 -1 -200 -12z"/>
<path d="M36055 8030 c-384 -77 -634 -445 -634 -935 0 -480 240 -845 612 -930
317 -72 615 38 752 276 l25 44 0 -150 c0 -277 -29 -394 -117 -475 -83 -77
-213 -111 -347 -91 -134 20 -231 85 -272 184 l-19 47 -283 0 -284 0 7 -42 c13
-75 46 -171 86 -249 159 -307 496 -466 944 -446 387 18 668 206 785 525 67
183 63 125 67 1230 l4 1002 -286 0 -285 0 0 -157 0 -156 -38 59 c-84 129 -206
215 -358 254 -82 21 -276 26 -359 10z m437 -501 c198 -42 310 -198 310 -434 0
-282 -170 -459 -427 -443 -176 11 -305 118 -351 292 -21 78 -18 241 6 318 63
204 250 312 462 267z"/>
<path d="M39725 8025 c-176 -39 -318 -134 -407 -274 l-28 -45 0 157 0 157
-290 0 -290 0 0 -925 0 -925 290 0 290 0 0 525 c0 345 4 542 11 577 26 123
111 229 217 268 57 22 178 29 238 14 97 -23 186 -103 226 -203 23 -56 23 -59
26 -618 l3 -563 289 0 290 0 0 538 c0 558 -7 697 -40 826 -66 261 -246 439
-493 490 -91 19 -249 20 -332 1z"/>
<path d="M41566 8024 c-344 -68 -588 -295 -675 -629 -48 -181 -48 -419 0 -600
85 -326 332 -557 674 -631 120 -26 343 -24 457 4 279 69 489 232 599 465 29
62 59 156 59 185 0 9 -67 12 -302 12 l-303 0 -19 -45 c-44 -108 -155 -175
-290 -175 -91 0 -154 19 -210 62 -75 57 -121 146 -133 259 l-6 59 641 0 640 0
8 67 c17 161 -13 362 -75 498 -107 236 -333 410 -606 466 -109 23 -353 24
-459 3z m368 -465 c87 -32 148 -97 175 -184 12 -37 21 -85 21 -106 l0 -39
-356 0 -356 0 6 38 c22 121 67 198 146 253 102 72 238 86 364 38z"/>
<path d="M43632 8029 c-30 -5 -96 -23 -148 -40 -322 -107 -526 -370 -574 -740
-25 -194 2 -418 69 -574 48 -114 94 -180 190 -275 83 -83 110 -103 201 -148
283 -141 630 -146 905 -12 231 114 400 323 450 558 l7 32 -305 0 -305 0 -13
-37 c-7 -22 -36 -62 -68 -93 -67 -67 -128 -90 -236 -90 -195 0 -314 118 -338
338 l-5 42 639 0 c600 0 640 1 647 18 4 9 6 82 6 162 -1 121 -5 161 -27 241
-79 301 -294 515 -603 599 -64 18 -112 23 -259 25 -99 2 -204 -1 -233 -6z
m338 -465 c126 -49 189 -134 206 -281 l7 -53 -358 0 -358 0 6 44 c28 199 180
324 382 312 39 -2 90 -12 115 -22z"/>
<path d="M46090 8024 c-81 -17 -227 -89 -303 -149 -31 -25 -81 -74 -110 -109
l-52 -65 -3 160 -2 159 -290 0 -290 0 0 -925 0 -925 290 0 290 0 0 455 c0 298
4 472 11 507 30 142 121 232 276 273 32 9 122 19 201 22 l142 6 0 304 0 303
-47 -1 c-27 0 -77 -7 -113 -15z"/>
<path d="M48445 8024 c-148 -29 -317 -142 -398 -267 l-32 -50 -3 157 -3 156
-284 0 -285 0 0 -925 0 -925 284 0 285 0 3 543 c4 603 4 600 74 703 66 98 163
145 299 145 132 0 224 -45 284 -139 61 -96 61 -101 61 -704 l0 -548 290 0 290
0 0 583 c0 617 -5 703 -49 830 -83 239 -259 400 -484 442 -96 18 -238 18 -332
-1z"/>
<path d="M50190 8024 c-36 -7 -108 -34 -160 -60 -162 -80 -298 -235 -374 -426
-58 -147 -70 -226 -70 -443 0 -174 2 -212 22 -288 49 -196 119 -326 241 -447
151 -149 306 -212 526 -213 138 0 223 17 318 64 109 54 167 107 251 229 16 24
17 16 14 -190 -4 -243 -15 -287 -84 -369 -98 -114 -329 -153 -490 -81 -60 26
-139 108 -155 159 l-12 41 -285 0 -284 0 7 -47 c10 -75 59 -206 103 -280 116
-195 318 -332 567 -384 181 -39 430 -35 600 7 148 37 325 151 421 272 58 74
127 216 153 316 37 141 41 263 41 1214 l0 922 -290 0 -290 0 0 -152 -1 -153
-21 40 c-31 60 -154 176 -225 213 -98 51 -196 72 -337 71 -67 0 -150 -7 -186
-15z m462 -495 c146 -31 254 -135 292 -284 18 -67 21 -218 5 -284 -28 -123
-106 -222 -217 -274 -62 -30 -75 -32 -172 -32 -99 0 -110 2 -172 33 -84 41
-158 120 -188 199 -88 236 -9 515 172 609 77 40 187 53 280 33z"/>
<path d="M37760 7095 l0 -925 285 0 285 0 0 925 0 925 -285 0 -285 0 0 -925z"/>
<path d="M46480 7095 l0 -925 290 0 290 0 0 925 0 925 -290 0 -290 0 0 -925z"/>
<path d="M32141 4498 c-57 -28 -81 -68 -81 -138 0 -71 26 -115 83 -140 85 -39
202 -14 251 53 30 41 29 131 -3 176 -49 68 -165 91 -250 49z"/>
<path d="M35240 4498 c-64 -33 -85 -67 -85 -138 0 -71 21 -104 86 -138 35 -19
56 -23 105 -20 111 7 170 70 162 175 -4 44 -11 60 -38 88 -57 59 -153 72 -230
33z"/>
<path d="M28730 3735 l0 -615 155 0 155 0 0 615 0 615 -155 0 -155 0 0 -615z"/>
<path d="M14146 3750 c-120 -324 -220 -599 -223 -610 -5 -19 -1 -20 155 -20
l160 0 37 110 37 110 226 -2 226 -3 35 -107 35 -108 164 0 c127 0 163 3 160
13 -3 6 -103 281 -224 609 l-219 598 -176 0 -176 0 -217 -590z m464 35 c35
-104 65 -196 68 -202 3 -10 -29 -13 -141 -13 l-146 0 71 210 c39 116 75 207
78 203 4 -5 36 -93 70 -198z"/>
<path d="M16926 3742 c-121 -328 -221 -603 -224 -610 -3 -10 30 -12 159 -10
l163 3 35 108 35 107 226 0 226 0 35 -107 35 -108 166 -3 165 -2 -187 507
c-103 280 -204 554 -225 611 l-37 102 -177 0 -176 0 -219 -598z m534 -164 c0
-5 -63 -8 -140 -8 -77 0 -140 4 -140 9 0 9 111 338 130 386 12 29 15 21 81
-175 38 -112 69 -208 69 -212z"/>
<path d="M19270 4210 l0 -120 -65 0 -65 0 0 -130 0 -130 65 0 65 0 0 -187 c0
-104 5 -217 10 -253 15 -93 53 -166 107 -204 74 -52 124 -64 261 -65 l122 -1
0 130 0 130 -70 0 c-62 0 -74 3 -95 25 -25 24 -25 25 -25 225 l0 200 95 0 95
0 0 130 0 130 -95 0 -95 0 0 120 0 120 -155 0 -155 0 0 -120z"/>
<path d="M31420 4210 l0 -120 -65 0 -65 0 0 -130 0 -130 65 0 65 0 0 -182 c1
-298 25 -395 119 -463 66 -49 136 -65 274 -65 l117 0 0 129 0 129 -81 4 c-121
5 -119 1 -119 249 l0 199 95 0 95 0 0 130 0 130 -95 0 -95 0 0 120 0 120 -155
0 -155 0 0 -120z"/>
<path d="M32640 4210 l0 -120 -65 0 -65 0 0 -130 0 -130 65 0 65 0 0 -210 c0
-279 16 -349 96 -420 71 -61 114 -74 267 -78 l137 -4 0 131 0 131 -65 0 c-69
0 -109 13 -121 39 -4 9 -10 105 -12 214 l-4 197 101 0 101 0 0 130 0 130 -100
0 -100 0 0 120 0 120 -150 0 -150 0 0 -120z"/>
<path d="M34520 4210 l0 -120 -65 0 -65 0 0 -130 0 -130 64 0 64 0 4 -237 c3
-219 6 -243 26 -295 26 -65 80 -119 151 -151 38 -18 70 -22 184 -25 l137 -4 0
131 0 131 -69 0 c-54 0 -74 4 -95 21 l-26 20 0 205 0 204 95 0 95 0 0 130 0
130 -95 0 -94 0 -3 118 -3 117 -152 3 -153 3 0 -121z"/>
<path d="M15763 4086 c-73 -24 -150 -83 -181 -141 -9 -16 -11 -3 -12 63 l0 82
-150 0 -150 0 0 -485 0 -485 149 0 149 0 4 288 c3 251 6 292 22 330 47 110
195 146 282 70 69 -60 69 -61 72 -390 l3 -298 150 0 149 0 0 328 c0 348 -4
383 -51 477 -29 57 -95 120 -157 148 -59 26 -215 34 -279 13z"/>
<path d="M20231 4085 c-176 -49 -298 -179 -336 -360 -58 -276 80 -530 325
-599 192 -54 402 -10 531 111 57 53 112 155 129 240 18 86 8 254 -19 325 -48
124 -149 223 -276 270 -78 28 -272 35 -354 13z m262 -281 c54 -36 87 -109 87
-195 0 -111 -39 -186 -114 -220 -96 -43 -197 -4 -248 96 -28 53 -30 162 -5
226 45 117 177 161 280 93z"/>
<path d="M21523 4081 c-64 -24 -103 -50 -143 -99 l-30 -37 0 73 0 72 -155 0
-155 0 0 -485 0 -485 155 0 155 0 0 293 c0 336 4 353 81 404 35 23 53 28 103
28 75 0 121 -26 156 -87 25 -43 25 -45 28 -340 l3 -298 150 0 150 0 -3 353
c-3 340 -4 354 -26 409 -31 76 -99 150 -170 185 -76 37 -219 44 -299 14z"/>
<path d="M22511 4084 c-257 -69 -397 -321 -336 -607 48 -230 231 -370 485
-371 160 -1 281 44 374 137 93 95 136 207 136 357 -1 252 -126 426 -351 485
-69 19 -238 18 -308 -1z m210 -256 c50 -17 83 -45 110 -91 20 -36 24 -55 24
-132 0 -107 -22 -160 -84 -201 -115 -75 -262 -9 -291 132 -28 134 24 253 127
289 48 18 71 18 114 3z"/>
<path d="M23803 4086 c-59 -19 -107 -51 -148 -99 l-35 -41 0 72 0 72 -150 0
-150 0 0 -485 0 -485 149 0 149 0 4 288 c4 300 7 323 51 370 68 73 206 75 270
4 41 -45 46 -84 47 -379 l0 -283 150 0 150 0 0 260 c0 149 5 281 11 310 20 92
84 143 180 143 68 0 117 -26 151 -81 22 -36 23 -44 26 -334 l3 -298 150 0 149
0 0 323 c0 342 -5 389 -50 478 -30 58 -94 117 -159 147 -50 24 -68 27 -166 27
-105 0 -114 -2 -177 -33 -62 -30 -158 -118 -158 -144 0 -6 -15 12 -32 38 -39
57 -109 108 -181 129 -61 18 -177 18 -234 1z"/>
<path d="M25451 4085 c-176 -49 -298 -179 -336 -360 -38 -180 5 -353 117 -471
61 -65 115 -99 196 -124 191 -60 411 -16 543 107 57 53 112 155 129 240 18 86
8 254 -19 325 -48 124 -149 223 -276 270 -78 28 -272 35 -354 13z m262 -281
c54 -36 87 -109 87 -195 0 -111 -39 -186 -114 -220 -96 -43 -197 -4 -248 96
-28 53 -30 162 -5 226 45 117 177 161 280 93z"/>
<path d="M27637 4090 c-54 -14 -117 -48 -155 -84 -100 -93 -110 -269 -21 -369
47 -54 100 -78 276 -123 154 -39 189 -55 205 -89 14 -32 -5 -78 -38 -94 -83
-38 -214 26 -214 104 0 13 -21 15 -151 15 l-151 0 7 -37 c25 -135 121 -238
268 -285 84 -27 267 -30 348 -5 123 37 205 125 216 230 12 117 -23 202 -108
258 -41 28 -156 68 -302 104 -84 22 -131 52 -135 87 -5 40 14 66 56 77 73 20
150 -15 179 -80 l17 -39 143 0 143 0 -6 28 c-12 53 -62 150 -99 191 -22 24
-68 56 -113 78 -73 36 -78 37 -201 40 -69 1 -143 -2 -164 -7z"/>
<path d="M29735 4087 c-67 -22 -98 -43 -148 -96 l-47 -50 0 74 0 75 -150 0
-150 0 0 -485 0 -485 150 0 150 0 0 273 c0 313 7 354 65 406 35 30 90 51 135
51 32 0 100 -32 122 -56 44 -50 48 -79 48 -384 l0 -290 155 0 155 0 0 313 c0
405 -14 471 -113 571 -67 66 -125 89 -237 93 -60 2 -110 -2 -135 -10z"/>
<path d="M30609 4087 c-151 -43 -239 -162 -226 -307 13 -147 91 -208 337 -266
175 -42 219 -70 205 -135 -23 -105 -255 -55 -255 56 0 13 -21 15 -150 15 -119
0 -150 -3 -150 -13 0 -31 41 -130 71 -172 76 -105 199 -157 379 -158 181 -2
291 44 355 147 25 42 31 62 34 128 3 69 0 85 -24 134 -28 57 -78 102 -145 130
-19 9 -98 32 -174 52 -77 20 -153 45 -170 57 -82 55 -11 150 95 126 52 -12 86
-38 106 -82 l18 -38 143 -1 c78 0 142 4 142 8 0 4 -9 35 -20 68 -38 109 -118
193 -228 238 -60 24 -273 32 -343 13z"/>
<path d="M35969 4081 c-127 -41 -239 -133 -288 -235 -51 -110 -65 -259 -36
-384 52 -222 237 -356 490 -356 123 0 215 25 305 86 122 81 187 206 197 378
14 256 -114 446 -346 514 -76 22 -248 21 -322 -3z m214 -252 c98 -27 155 -130
144 -257 -12 -126 -82 -197 -192 -197 -111 0 -182 74 -192 199 -10 122 41 218
133 251 48 17 59 18 107 4z"/>
<path d="M37283 4086 c-60 -20 -107 -51 -153 -103 l-40 -46 0 77 0 76 -150 0
-150 0 0 -485 0 -485 150 0 150 0 0 273 c0 313 7 354 65 406 35 30 90 51 135
51 34 0 100 -32 127 -61 40 -44 43 -70 43 -375 l0 -294 155 0 155 0 0 314 c0
172 -5 337 -10 366 -23 122 -92 220 -188 267 -48 23 -71 28 -152 30 -60 2
-110 -2 -137 -11z"/>
<path d="M18042 3738 c3 -342 4 -355 26 -410 29 -72 107 -159 167 -187 97 -46
250 -44 343 3 26 13 67 45 90 70 l42 46 0 -70 0 -70 155 0 155 0 0 485 0 485
-155 0 -155 0 0 -292 c0 -263 -2 -297 -19 -333 -21 -46 -54 -79 -94 -94 -70
-27 -175 0 -214 55 -38 53 -43 99 -43 387 l0 277 -151 0 -150 0 3 -352z"/>
<path d="M26250 3758 c0 -246 4 -346 14 -383 41 -153 143 -247 289 -265 132
-16 253 24 327 107 l40 46 0 -72 0 -71 155 0 155 0 0 485 0 485 -155 0 -155 0
0 -282 c0 -299 -5 -338 -46 -387 -56 -66 -179 -80 -249 -27 -69 53 -70 57 -73
394 l-3 302 -150 0 -149 0 0 -332z"/>
<path d="M32080 3605 l0 -485 155 0 155 0 0 485 0 485 -155 0 -155 0 0 -485z"/>
<path d="M33282 3753 c4 -306 6 -344 25 -399 55 -165 168 -246 343 -246 116 0
186 27 257 98 l53 53 0 -70 0 -69 155 0 155 0 0 485 0 485 -154 0 -155 0 -3
-297 c-3 -296 -3 -298 -28 -343 -54 -97 -198 -121 -279 -47 -13 12 -32 40 -42
62 -17 36 -19 70 -19 333 l0 292 -156 0 -156 0 4 -337z"/>
<path d="M35180 3605 l0 -485 150 0 150 0 0 485 0 485 -150 0 -150 0 0 -485z"/>
<path d="M17625 2338 c-92 -32 -135 -151 -82 -228 35 -52 68 -71 134 -77 75
-7 120 7 164 53 32 33 34 39 34 104 0 65 -2 71 -35 105 -50 52 -139 70 -215
43z"/>
<path d="M32270 2328 c-64 -33 -85 -67 -85 -138 0 -71 21 -105 85 -137 57 -29
129 -30 186 -2 57 27 84 72 84 139 0 67 -27 112 -84 139 -57 28 -129 27 -186
-1z"/>
<path d="M36653 2329 c-23 -11 -52 -36 -63 -54 -27 -44 -27 -126 0 -171 44
-70 164 -95 250 -51 64 32 85 66 85 137 0 71 -21 105 -85 138 -57 29 -130 29
-187 1z"/>
<path d="M46800 2328 c-64 -33 -85 -67 -85 -138 0 -71 21 -105 85 -137 57 -29
129 -30 186 -2 57 27 84 72 84 139 0 67 -27 112 -84 139 -57 28 -129 27 -186
-1z"/>
<path d="M15584 2295 c-34 -7 -79 -22 -100 -33 -89 -46 -162 -153 -171 -251
-8 -93 -7 -91 -68 -91 l-55 0 0 -130 0 -130 55 0 55 0 0 -355 0 -355 155 0
155 0 0 355 0 355 90 0 90 0 0 130 0 130 -91 0 -91 0 7 28 c16 66 52 92 131
92 l44 0 0 135 0 135 -72 -1 c-40 0 -101 -7 -134 -14z"/>
<path d="M16212 2295 c-156 -34 -247 -141 -267 -312 l-7 -63 -54 0 -54 0 0
-130 0 -130 55 0 55 0 0 -355 0 -355 155 0 155 0 0 355 0 355 135 0 135 0 0
-355 0 -355 150 0 150 0 0 485 0 485 -285 0 c-316 0 -299 -4 -270 65 16 39 46
55 106 55 l39 0 0 135 0 135 -67 -1 c-38 0 -97 -7 -131 -14z"/>
<path d="M16573 2290 c-56 -25 -83 -70 -83 -137 0 -92 68 -147 180 -147 71 0
109 15 149 58 35 37 41 127 11 174 -27 43 -90 72 -160 72 -33 0 -72 -8 -97
-20z"/>
<path d="M17050 1595 l0 -645 150 0 150 0 0 645 0 645 -150 0 -150 0 0 -645z"/>
<path d="M21680 2008 l0 -233 -27 38 c-33 46 -103 92 -166 108 -27 6 -85 10
-135 7 -107 -5 -182 -37 -254 -109 -180 -180 -186 -565 -11 -759 79 -88 221
-139 343 -125 75 8 171 56 215 107 l35 42 0 -67 0 -67 155 0 155 0 0 645 0
645 -155 0 -155 0 0 -232z m-112 -367 c78 -40 112 -103 112 -208 0 -82 -22
-135 -73 -180 -116 -101 -286 -44 -328 111 -22 80 7 203 57 247 59 52 163 65
232 30z"/>
<path d="M40980 1595 l0 -645 150 0 150 0 0 265 c0 153 5 285 11 315 19 87 99
150 189 150 34 0 100 -32 127 -61 40 -44 43 -70 43 -375 l0 -294 155 0 155 0
0 314 c0 172 -5 337 -10 366 -23 122 -92 220 -188 267 -52 25 -67 28 -167 28
-100 0 -115 -2 -167 -28 -33 -16 -76 -49 -103 -79 l-45 -50 0 236 0 236 -150
0 -150 0 0 -645z"/>
<path d="M40052 2170 c-253 -68 -405 -274 -419 -566 -16 -330 146 -576 427
-649 84 -22 262 -22 345 0 207 54 359 209 409 418 l6 27 -164 0 -164 0 -12
-30 c-21 -50 -105 -118 -168 -136 -112 -33 -216 -3 -290 81 -59 67 -77 128
-77 255 0 94 3 111 29 168 71 154 236 213 385 137 49 -24 104 -79 123 -121 11
-24 12 -24 175 -24 l163 0 -6 28 c-38 157 -138 288 -276 362 -93 50 -143 61
-283 66 -108 3 -143 1 -203 -16z"/>
<path d="M29822 1758 c4 -409 5 -425 27 -493 73 -220 233 -330 481 -329 280 1
467 153 510 416 5 35 10 234 10 446 l0 382 -155 0 -154 0 -3 -407 -3 -408 -28
-48 c-37 -62 -90 -90 -172 -90 -82 0 -135 28 -172 90 l-28 48 -3 408 -3 407
-155 0 -156 0 4 -422z"/>
<path d="M14146 1580 c-120 -324 -220 -599 -223 -610 -5 -19 -1 -20 155 -20
l160 0 37 110 37 110 226 -2 226 -3 35 -107 35 -108 164 0 c127 0 163 3 160
13 -3 6 -103 281 -224 609 l-219 598 -176 0 -176 0 -217 -590z m464 35 c35
-104 65 -196 68 -202 3 -10 -29 -13 -141 -13 l-146 0 71 210 c39 116 75 207
78 203 4 -5 36 -93 70 -198z"/>
<path d="M25055 2158 c-3 -7 -95 -258 -206 -558 -110 -300 -209 -569 -219
-597 l-19 -53 162 0 163 0 35 108 35 107 226 3 226 2 37 -110 37 -110 164 0
164 0 -30 83 c-17 45 -117 318 -224 607 l-193 525 -177 3 c-136 2 -178 0 -181
-10z m182 -756 c-77 -1 -141 -1 -143 1 -2 2 28 100 68 217 l72 213 71 -214 72
-214 -140 -3z"/>
<path d="M19280 2040 l0 -120 -65 0 -65 0 0 -130 0 -130 65 0 65 0 0 -217 c0
-274 14 -336 92 -410 63 -61 117 -77 271 -81 l137 -4 0 131 0 131 -65 0 c-83
0 -112 14 -125 59 -5 20 -10 116 -10 214 l0 177 100 0 100 0 0 130 0 130 -100
0 -100 0 0 120 0 120 -150 0 -150 0 0 -120z"/>
<path d="M22590 2040 l0 -120 -65 0 -65 0 0 -130 0 -130 64 0 64 0 4 -242 c3
-229 4 -246 26 -293 30 -66 83 -118 146 -147 43 -19 72 -23 189 -26 l137 -4 0
131 0 131 -64 0 c-84 0 -111 11 -125 51 -6 19 -11 106 -11 215 l0 184 100 0
100 0 0 130 0 130 -100 0 -100 0 0 120 0 120 -150 0 -150 0 0 -120z"/>
<path d="M37150 2040 l0 -120 -65 0 -65 0 0 -130 0 -130 64 0 64 0 4 -237 c5
-266 11 -298 74 -371 19 -23 60 -53 92 -69 53 -26 68 -28 195 -31 l137 -4 0
131 0 131 -69 0 c-54 0 -74 4 -95 21 l-26 20 0 205 0 204 95 0 95 0 0 130 0
130 -95 0 -95 0 0 120 0 120 -155 0 -155 0 0 -120z"/>
<path d="M18293 1915 c-141 -44 -239 -160 -279 -332 -12 -50 -15 -98 -11 -183
7 -169 48 -272 144 -361 61 -57 124 -87 208 -100 139 -22 277 27 341 121 l24
35 0 -73 0 -72 155 0 155 0 0 485 0 485 -155 0 -155 0 0 -68 0 -68 -57 56
c-42 40 -73 60 -112 73 -64 20 -197 22 -258 2z m317 -275 c72 -37 110 -110
110 -212 0 -134 -81 -221 -205 -221 -35 0 -72 6 -90 15 -151 80 -155 339 -7
418 50 26 140 26 192 0z"/>
<path d="M20236 1919 c-76 -18 -165 -70 -220 -130 -89 -96 -126 -200 -126
-354 0 -156 43 -274 134 -365 223 -225 659 -162 786 113 16 34 32 74 36 90 l6
27 -166 0 c-137 0 -166 -2 -166 -14 0 -23 -51 -78 -87 -92 -46 -20 -100 -17
-149 7 -50 24 -80 67 -90 127 l-7 42 334 2 334 3 3 85 c8 226 -117 399 -331
456 -58 15 -230 17 -291 3z m224 -251 c53 -27 90 -78 90 -124 l0 -34 -180 0
c-200 0 -194 -3 -165 67 21 50 42 72 90 94 54 25 111 24 165 -3z"/>
<path d="M23550 1916 c-168 -48 -281 -155 -330 -314 -24 -77 -27 -240 -6 -318
34 -128 120 -236 232 -292 84 -42 155 -57 264 -56 159 1 272 47 367 147 92 97
128 197 126 357 -1 247 -127 417 -350 475 -69 18 -240 18 -303 1z m203 -257
c88 -24 141 -111 141 -228 -1 -106 -40 -176 -119 -212 -102 -47 -216 7 -254
120 -6 19 -11 64 -11 100 0 111 48 188 135 219 39 14 62 14 108 1z"/>
<path d="M26465 1917 c-75 -25 -117 -54 -167 -115 l-28 -34 0 76 0 76 -155 0
-155 0 0 -485 0 -485 154 0 155 0 3 298 c3 258 5 301 20 328 72 132 260 134
326 4 21 -43 22 -53 22 -337 l0 -293 155 0 155 0 0 313 c0 405 -14 471 -113
571 -67 66 -125 89 -237 93 -60 2 -110 -2 -135 -10z"/>
<path d="M27633 1916 c-60 -20 -107 -51 -153 -103 l-40 -46 0 77 0 76 -150 0
-150 0 0 -485 0 -485 150 0 150 0 0 265 c0 153 5 285 11 315 19 87 99 150 189
150 34 0 100 -32 127 -61 40 -44 43 -70 43 -375 l0 -294 155 0 155 0 0 314 c0
172 -5 337 -10 366 -23 122 -92 220 -188 267 -48 23 -71 28 -152 30 -60 2
-110 -2 -137 -11z"/>
<path d="M28553 1916 c-140 -45 -233 -153 -274 -317 -18 -70 -21 -102 -16
-199 8 -169 48 -272 144 -361 61 -57 124 -87 208 -100 139 -22 277 27 341 121
l24 35 0 -73 0 -72 155 0 155 0 0 485 0 485 -155 0 -155 0 0 -70 0 -70 -42 46
c-68 74 -124 97 -243 101 -65 2 -115 -2 -142 -11z m317 -276 c70 -36 110 -110
110 -204 0 -71 -16 -121 -52 -162 -44 -50 -83 -67 -153 -67 -127 0 -205 87
-205 229 0 92 40 168 108 204 50 26 140 26 192 0z"/>
<path d="M31533 1916 c-60 -20 -107 -51 -153 -103 l-40 -46 0 77 0 76 -150 0
-150 0 0 -485 0 -485 149 0 149 0 4 293 c3 290 3 292 28 337 85 152 302 121
339 -49 6 -31 11 -161 11 -316 l0 -265 150 0 150 0 0 320 c0 198 -4 339 -11
372 -25 115 -94 209 -187 255 -48 23 -71 28 -152 30 -60 2 -110 -2 -137 -11z"/>
<path d="M34091 1914 c-156 -42 -274 -162 -316 -320 -20 -77 -20 -241 0 -318
35 -133 118 -235 237 -291 250 -119 560 -27 666 197 17 35 33 75 36 91 l6 27
-164 0 -164 0 -6 -24 c-15 -60 -117 -108 -193 -92 -73 16 -132 87 -133 158 l0
28 333 2 332 3 3 70 c11 232 -110 404 -327 469 -69 20 -235 20 -310 0z m239
-246 c54 -28 80 -62 87 -116 l6 -42 -182 0 c-176 0 -181 1 -181 20 0 26 32 90
57 112 55 50 144 61 213 26z"/>
<path d="M35391 1914 c-64 -23 -120 -60 -168 -113 l-43 -46 0 83 0 82 -150 0
-150 0 0 -485 0 -485 150 0 150 0 0 225 c0 267 8 315 59 367 42 41 82 54 199
64 l82 7 0 158 0 159 -42 0 c-24 -1 -63 -8 -87 -16z"/>
<path d="M35817 1910 c-138 -44 -207 -134 -207 -270 0 -91 20 -140 78 -192 53
-48 86 -61 256 -104 191 -48 206 -57 206 -124 0 -47 -42 -73 -113 -68 -69 5
-104 28 -132 86 l-20 41 -142 1 -143 0 0 -25 c0 -46 41 -134 85 -183 156 -174
535 -188 684 -26 98 105 90 281 -15 374 -51 44 -96 63 -252 104 -72 20 -147
42 -167 50 -69 29 -66 107 6 134 66 25 157 -16 185 -85 l14 -33 141 0 142 0
-6 37 c-10 57 -53 135 -103 187 -85 86 -173 116 -334 115 -74 0 -122 -6 -163
-19z"/>
<path d="M42438 1915 c-168 -46 -297 -184 -328 -354 -55 -296 85 -549 340
-612 85 -21 232 -16 309 10 153 53 266 171 296 309 l7 32 -160 0 -159 0 -24
-37 c-13 -20 -36 -45 -50 -56 -34 -24 -106 -33 -153 -17 -60 20 -113 91 -115
158 l-1 22 335 0 335 0 0 94 c0 233 -119 395 -333 452 -64 17 -235 17 -299 -1z
m219 -240 c63 -27 93 -64 106 -132 l7 -33 -186 0 -186 0 7 33 c15 67 45 105
105 131 45 20 101 20 147 1z"/>
<path d="M43710 1914 c-58 -21 -122 -65 -154 -106 l-26 -33 0 73 0 72 -155 0
-155 0 0 -485 0 -485 154 0 155 0 3 303 c3 295 4 303 26 339 35 57 85 83 158
83 49 0 68 -5 101 -27 75 -49 78 -63 81 -400 l3 -298 156 0 155 0 -5 333 c-5
356 -10 395 -60 480 -36 59 -93 112 -152 138 -67 30 -218 37 -285 13z"/>
<path d="M44893 1916 c-68 -22 -132 -64 -163 -108 l-30 -41 0 76 0 77 -155 0
-155 0 0 -485 0 -485 155 0 155 0 0 288 c0 258 2 291 19 328 25 54 64 89 117
104 80 23 157 -5 202 -72 l27 -41 3 -304 3 -303 155 0 154 0 0 293 c0 328 -8
406 -49 492 -60 127 -156 187 -306 192 -57 2 -106 -2 -132 -11z"/>
<path d="M45809 1915 c-139 -51 -230 -153 -272 -305 -48 -173 -20 -378 70
-508 75 -110 182 -164 323 -166 120 -1 179 21 252 95 l58 57 0 -69 0 -69 150
0 150 0 0 485 0 485 -150 0 -150 0 0 -77 0 -78 -19 31 c-27 45 -88 92 -149
114 -62 24 -206 26 -263 5z m304 -269 c117 -49 163 -226 89 -346 -76 -123
-261 -127 -339 -8 -23 34 -28 55 -32 116 -2 41 2 92 8 114 14 47 65 106 106
124 39 17 127 18 168 0z"/>
<path d="M17550 1435 l0 -485 150 0 150 0 0 485 0 485 -150 0 -150 0 0 -485z"/>
<path d="M32210 1435 l0 -485 150 0 150 0 0 485 0 485 -150 0 -150 0 0 -485z"/>
<path d="M32636 1898 c3 -13 80 -230 169 -483 l163 -460 190 -3 c174 -2 190
-1 197 15 15 39 335 944 335 949 0 2 -73 4 -162 4 l-163 0 -100 -324 c-55
-179 -102 -323 -105 -321 -3 2 -50 148 -105 324 l-100 321 -163 0 -163 0 7
-22z"/>
<path d="M36590 1435 l0 -485 155 0 155 0 0 485 0 485 -155 0 -155 0 0 -485z"/>
<path d="M37703 1908 c3 -7 93 -215 201 -462 108 -247 196 -454 196 -459 0 -6
-49 -119 -110 -252 -60 -132 -110 -244 -110 -248 0 -4 75 -6 167 -5 l168 3
301 715 302 715 -166 3 c-91 1 -169 -1 -172 -5 -4 -5 -51 -129 -105 -278 -53
-148 -100 -273 -104 -277 -3 -4 -56 120 -117 275 l-110 282 -173 3 c-137 2
-172 0 -168 -10z"/>
<path d="M46740 1435 l0 -485 150 0 150 0 0 485 0 485 -150 0 -150 0 0 -485z"/>
<path d="M54620 1200 l0 -210 30 0 30 0 0 90 0 90 75 0 c73 0 75 1 75 25 0 24
-2 25 -75 25 l-75 0 0 65 0 65 80 0 80 0 0 30 0 30 -110 0 -110 0 0 -210z"/>
<path d="M55692 1389 c-72 -36 -112 -107 -112 -201 0 -148 115 -231 274 -198
l56 11 0 51 c0 36 -3 48 -12 44 -62 -25 -90 -29 -128 -17 -52 15 -80 58 -80
123 0 101 93 148 203 103 15 -6 17 -1 17 43 0 60 -4 62 -103 62 -53 0 -83 -6
-115 -21z"/>
<path d="M56012 1393 c-40 -19 -62 -59 -62 -111 0 -53 27 -84 106 -122 68 -32
84 -51 64 -75 -18 -22 -98 -19 -137 5 l-33 20 0 -54 0 -55 56 -11 c98 -21 190
5 219 60 38 73 9 135 -86 185 -39 20 -73 43 -76 51 -15 41 68 59 127 29 l30
-16 0 50 c0 35 -4 51 -16 55 -33 13 -159 6 -192 -11z"/>
<path d="M56300 1200 l0 -210 125 0 125 0 0 40 0 40 -75 0 -75 0 0 45 0 45 65
0 65 0 0 40 0 40 -65 0 -65 0 0 40 0 40 70 0 70 0 0 45 0 45 -120 0 -120 0 0
-210z"/>
<path d="M56920 1200 l0 -210 130 0 130 0 0 40 0 40 -75 0 -75 0 0 45 0 45 65
0 65 0 0 40 0 40 -65 0 -65 0 0 40 0 40 70 0 70 0 0 45 0 45 -125 0 -125 0 0
-210z"/>
<path d="M57322 1389 c-72 -36 -112 -107 -112 -201 0 -148 115 -231 274 -198
l56 11 0 51 c0 36 -3 48 -12 44 -62 -25 -90 -29 -128 -17 -52 15 -80 58 -80
123 0 101 93 148 203 103 15 -6 17 -1 17 43 0 60 -4 62 -103 62 -53 0 -83 -6
-115 -21z"/>
<path d="M57600 1200 l0 -210 125 0 125 0 0 40 0 40 -75 0 -75 0 0 45 0 45 65
0 65 0 0 40 0 40 -65 0 -65 0 0 40 0 40 70 0 70 0 0 45 0 45 -120 0 -120 0 0
-210z"/>
<path d="M58230 1200 l0 -210 125 0 125 0 0 40 0 40 -75 0 -75 0 0 45 0 45 65
0 65 0 0 40 0 40 -65 0 -65 0 0 40 0 40 70 0 70 0 0 45 0 45 -120 0 -120 0 0
-210z"/>
<path d="M58540 1200 l0 -210 125 0 125 0 0 40 0 40 -75 0 -75 0 0 45 0 45 65
0 65 0 0 40 0 40 -65 0 -65 0 0 40 0 40 70 0 70 0 0 45 0 45 -120 0 -120 0 0
-210z"/>
<path d="M58850 1200 l0 -210 125 0 125 0 0 40 0 40 -75 0 -75 0 0 45 0 45 65
0 65 0 0 40 0 40 -65 0 -65 0 0 40 0 40 70 0 70 0 0 45 0 45 -120 0 -120 0 0
-210z"/>
<path d="M59480 1200 l0 -210 45 0 45 0 0 138 1 137 40 -77 c38 -76 40 -78 77
-78 37 0 38 1 79 83 l42 82 0 -142 1 -143 45 0 45 0 0 210 0 211 -62 -3 -63
-3 -44 -86 -44 -87 -43 89 -43 89 -61 0 -60 0 0 -210z"/>
<path d="M59990 1200 l0 -210 125 0 125 0 0 40 0 40 -75 0 -75 0 0 45 0 45 65
0 65 0 0 40 0 40 -65 0 -65 0 0 40 0 40 70 0 70 0 0 45 0 45 -120 0 -120 0 0
-210z"/>
<path d="M60382 1389 c-72 -36 -112 -107 -112 -201 0 -148 115 -231 274 -198
l56 11 0 51 c0 36 -3 48 -12 44 -62 -25 -90 -29 -128 -17 -52 15 -80 58 -80
123 0 101 93 148 203 103 15 -6 17 -1 17 43 0 60 -4 62 -103 62 -53 0 -83 -6
-115 -21z"/>
<path d="M60660 1200 l0 -210 50 0 50 0 0 85 0 85 80 0 80 0 0 -85 0 -85 50 0
50 0 0 210 0 210 -50 0 -50 0 0 -85 0 -85 -80 0 -80 0 0 85 0 85 -50 0 -50 0
0 -210z"/>
<path d="M54973 1289 c-88 -27 -122 -181 -57 -259 45 -53 144 -63 205 -19 77
55 76 205 -2 262 -31 22 -100 30 -146 16z m114 -63 c25 -22 28 -31 28 -84 0
-44 -5 -65 -18 -80 -58 -64 -157 -15 -157 78 0 91 84 140 147 86z"/>
<path d="M55350 1293 c-8 -3 -23 -12 -32 -21 -16 -14 -18 -13 -18 1 0 12 -9
17 -30 17 l-30 0 0 -150 0 -150 29 0 29 0 4 104 c2 87 6 108 23 126 15 17 27
21 52 17 31 -5 33 -4 33 23 0 34 -22 47 -60 33z"/>
<path d="M38850 1000 l0 -140 65 0 c61 0 65 -1 65 -22 0 -39 -23 -71 -57 -80
-33 -8 -33 -9 -33 -67 l0 -59 48 5 c147 15 232 135 219 313 -3 41 -15 101 -27
133 l-21 57 -130 0 -129 0 0 -140z"/>
</g>
</svg>
